
    <svg
      xmlns="http://www.w3.org/2000/svg"
      width="84"
      height="32"
      viewBox="0 0 84 32"
      fill="none"
    >
      <g clipPath="url(#clip0_116_3272)">
        <path
          d="M73.5412 18.3893C73.2173 18.3893 72.9744 18.3083 72.7855 18.1194C72.6235 17.9574 72.5156 17.6875 72.5156 17.3636V7.40416C72.5156 7.08028 72.5965 6.81037 72.7855 6.64843C72.9744 6.48649 73.2173 6.40552 73.5412 6.40552H75.3496C75.7544 6.40552 76.1053 6.43251 76.4022 6.4595C76.6991 6.51348 76.969 6.59445 77.1579 6.75639C77.3738 6.91833 77.5088 7.13426 77.6168 7.45814C77.7247 7.75504 77.7787 8.18688 77.7787 8.6997V16.0951C77.7787 16.7698 77.6977 17.2557 77.5088 17.5795C77.3199 17.9034 77.05 18.1194 76.6991 18.2273C76.3482 18.3353 75.8894 18.3893 75.3496 18.3623L73.5412 18.3893ZM67.7383 0.602578C67.4144 0.629568 67.1445 0.71054 66.9825 0.872482C66.8206 1.03442 66.7396 1.30433 66.7396 1.62821V23.1666C66.7396 23.4904 66.8206 23.7334 67.0095 23.9223C67.1715 24.0842 67.4414 24.1922 67.7653 24.1922H75.2686C76.834 24.1922 78.1836 24.0303 79.2632 23.7064C80.3428 23.3825 81.2065 22.8697 81.8543 22.2219C82.502 21.5741 82.9879 20.7104 83.2578 19.6848C83.5546 18.6592 83.6896 17.4716 83.6896 16.0951V8.6997C83.6896 7.32319 83.5546 6.13561 83.2578 5.10998C82.9609 4.08434 82.502 3.24764 81.8543 2.59987C81.2065 1.92511 80.3428 1.43928 79.2632 1.1154C78.1836 0.791511 76.861 0.629568 75.2686 0.629568L67.7383 0.602578ZM57.9138 14.8265C57.9138 15.4743 57.8868 16.0681 57.8598 16.5809C57.8058 17.0937 57.6978 17.5256 57.5359 17.9034C57.374 18.2813 57.104 18.5512 56.7262 18.7401C56.3753 18.9291 55.8895 19.037 55.2687 19.037C54.6479 19.037 54.1621 18.9291 53.8112 18.7401C53.4334 18.5512 53.1904 18.2813 53.0015 17.9034C52.8396 17.5526 52.7316 17.0937 52.6776 16.5809C52.6236 16.0681 52.5967 15.4743 52.6236 14.8265V9.96825C52.6236 9.32048 52.6506 8.72669 52.6776 8.21387C52.7316 7.70106 52.8396 7.26921 53.0015 6.89134C53.1635 6.51348 53.4334 6.24357 53.8112 6.05464C54.1621 5.86571 54.6479 5.75775 55.2687 5.75775C55.8895 5.75775 56.3753 5.86571 56.7262 6.05464C57.104 6.24357 57.347 6.51348 57.5359 6.89134C57.6978 7.24222 57.8058 7.70106 57.8598 8.21387C57.9138 8.72669 57.9138 9.32048 57.9138 9.96825V14.8265ZM63.6897 8.18688C63.6897 7.80902 63.6627 7.35018 63.6087 6.81037C63.5548 6.27056 63.4468 5.70376 63.2579 5.08299C63.0689 4.46221 62.799 3.86842 62.4482 3.27463C62.0703 2.68084 61.5845 2.14103 60.9637 1.6552C60.3429 1.16938 59.5602 0.764521 58.6155 0.467626C57.6708 0.170732 56.5373 0.0357795 55.2147 0.00878906C53.8922 0.00878906 52.7586 0.170732 51.8139 0.467626C50.8693 0.764521 50.0865 1.16938 49.4658 1.6552C48.845 2.14103 48.3592 2.68084 47.9813 3.27463C47.6034 3.86842 47.3335 4.4892 47.1716 5.08299C46.9827 5.70376 46.8747 6.27056 46.8207 6.81037C46.7667 7.35018 46.7397 7.80902 46.7397 8.18688V16.6079C46.7397 16.9858 46.7667 17.4446 46.8207 17.9844C46.8747 18.5242 46.9827 19.091 47.1716 19.7118C47.3335 20.3326 47.6304 20.9264 47.9813 21.5201C48.3592 22.1139 48.845 22.6537 49.4658 23.1666C50.0865 23.6524 50.8693 24.0572 51.8139 24.3271C52.7586 24.624 53.8922 24.786 55.2147 24.786C56.5373 24.786 57.6708 24.624 58.6155 24.3271C59.5602 24.0303 60.3429 23.6524 60.9637 23.1666C61.5845 22.6807 62.0703 22.1409 62.4482 21.5201C62.826 20.9264 63.0959 20.3056 63.2579 19.7118C63.4198 19.091 63.5548 18.5242 63.6087 17.9844C63.6627 17.4446 63.6897 16.9858 63.6897 16.6079V8.18688ZM38.2917 14.8265C38.2917 15.4743 38.2647 16.0681 38.2378 16.5809C38.1838 17.0937 38.0758 17.5256 37.9139 17.9034C37.7519 18.2813 37.482 18.5512 37.1042 18.7401C36.7533 18.9291 36.2675 19.037 35.6467 19.037C35.0259 19.037 34.5401 18.9291 34.1892 18.7401C33.8113 18.5512 33.5684 18.2813 33.3795 17.9034C33.2175 17.5526 33.1096 17.0937 33.0556 16.5809C33.0016 16.0681 32.9746 15.4743 33.0016 14.8265V9.96825C33.0016 9.32048 33.0286 8.72669 33.0556 8.21387C33.1096 7.70106 33.2175 7.26921 33.3795 6.89134C33.5414 6.51348 33.8113 6.24357 34.1892 6.05464C34.5401 5.86571 35.0259 5.75775 35.6467 5.75775C36.2675 5.75775 36.7533 5.86571 37.1042 6.05464C37.482 6.24357 37.7249 6.51348 37.9139 6.89134C38.0758 7.24222 38.1838 7.70106 38.2378 8.21387C38.2917 8.72669 38.2917 9.32048 38.2917 9.96825V14.8265ZM44.0947 8.18688C44.0947 7.80902 44.0677 7.35018 44.0137 6.81037C43.9597 6.27056 43.8518 5.70376 43.6628 5.08299C43.4739 4.46221 43.204 3.86842 42.8531 3.27463C42.4753 2.68084 41.9894 2.14103 41.3686 1.6552C40.7479 1.16938 39.9651 0.764521 39.0205 0.467626C38.0758 0.170732 36.9422 0.0357795 35.6197 0.00878906C34.2972 0.00878906 33.1636 0.170732 32.2189 0.467626C31.2742 0.764521 30.4915 1.16938 29.8707 1.6552C29.25 2.14103 28.7641 2.68084 28.3863 3.27463C28.0084 3.86842 27.7385 4.4892 27.5765 5.08299C27.3876 5.70376 27.2796 6.27056 27.2257 6.81037C27.1717 7.35018 27.1447 7.80902 27.1447 8.18688V16.6079C27.1447 16.9858 27.1717 17.4446 27.2257 17.9844C27.2796 18.5242 27.3876 19.091 27.5765 19.7118C27.7385 20.3326 28.0354 20.9264 28.3863 21.5201C28.7641 22.1139 29.25 22.6537 29.8707 23.1666C30.4915 23.6524 31.2742 24.0572 32.2189 24.3271C33.1636 24.624 34.2972 24.786 35.6197 24.786C36.9422 24.786 38.0758 24.624 39.0205 24.3271C39.9651 24.0303 40.7479 23.6524 41.3686 23.1666C41.9894 22.6807 42.4753 22.1409 42.8531 21.5201C43.231 20.9264 43.5009 20.3056 43.6628 19.7118C43.8248 19.091 43.9597 18.5242 44.0137 17.9844C44.0677 17.4446 44.0947 16.9858 44.0947 16.6079V8.18688ZM24.1758 0.602578C24.8505 0.602578 25.1744 0.953453 25.1744 1.60122V5.37988C25.1744 5.70376 25.0934 5.94668 24.9315 6.13561C24.7695 6.32454 24.4996 6.40552 24.1758 6.40552H15.3769C15.053 6.40552 14.8101 6.48649 14.6212 6.64843C14.4322 6.81037 14.3512 7.08028 14.3512 7.40416V23.1936C14.3512 23.5174 14.2703 23.7603 14.1083 23.9493C13.9464 24.1112 13.6765 24.2192 13.3526 24.2192H9.38501C9.06113 24.2192 8.81821 24.1382 8.62928 23.9493C8.46734 23.7603 8.35938 23.5174 8.35938 23.1936V1.62821C8.35938 1.30433 8.44035 1.03442 8.62928 0.872482C8.81821 0.71054 9.06113 0.629568 9.38501 0.629568L24.1758 0.602578Z"
          fill="#4C4C4C"
        />
        <path
          d="M82.1515 29.4545C82.1515 29.4275 82.1245 29.4275 82.1245 29.4005C82.1245 29.3735 82.1245 29.3735 82.1515 29.3465L83.5011 27.5112C83.555 27.4302 83.555 27.3762 83.528 27.3492C83.5011 27.3222 83.4471 27.2683 83.3661 27.2683H82.3944C82.3405 27.2683 82.2865 27.2683 82.2595 27.2952C82.2325 27.3222 82.1785 27.3492 82.1515 27.4032L81.0989 28.8337C81.0719 28.8607 81.0719 28.8607 81.0449 28.8607C81.0179 28.8607 81.0179 28.8337 81.0179 28.8067V27.4842C81.0179 27.3492 80.964 27.2952 80.829 27.2952H80.0733C80.0193 27.2952 79.9653 27.3222 79.9383 27.3492C79.9113 27.3762 79.8843 27.4302 79.8843 27.5112V31.7756C79.8843 31.8296 79.9113 31.8836 79.9383 31.9106C79.9653 31.9376 80.0193 31.9646 80.0733 31.9646H80.829C80.883 31.9646 80.937 31.9376 80.9909 31.9106C81.0449 31.8836 81.0449 31.8296 81.0449 31.7756V31.0469V30.9929C81.0449 30.9659 81.0449 30.9659 81.0719 30.9389L81.3418 30.5611C81.3418 30.5341 81.3688 30.5341 81.3958 30.5341C81.4228 30.5341 81.4228 30.5341 81.4498 30.5611L82.2865 31.8296C82.3135 31.8836 82.3405 31.9106 82.3944 31.9376C82.4214 31.9646 82.4754 31.9646 82.5294 31.9646H83.528C83.609 31.9646 83.663 31.9376 83.69 31.8836C83.717 31.8296 83.717 31.7756 83.663 31.7217L82.1515 29.4545ZM76.1057 27.2683C76.0517 27.2683 75.9977 27.2952 75.9707 27.3222C75.9437 27.3492 75.9168 27.4032 75.9168 27.4842V30.4531C75.9168 30.5341 75.9168 30.6151 75.9437 30.723C75.9437 30.831 75.9707 30.9389 76.0247 31.0739C76.0517 31.1819 76.1057 31.3168 76.1867 31.4248C76.2676 31.5327 76.3486 31.6407 76.4836 31.7487C76.6185 31.8566 76.7535 31.9106 76.9424 31.9916C77.1313 32.0456 77.3472 32.0725 77.6171 32.0725C77.887 32.0725 78.103 32.0456 78.2919 31.9916C78.4808 31.9376 78.6428 31.8566 78.7507 31.7487C78.8857 31.6407 78.9667 31.5327 79.0476 31.4248C79.1286 31.3168 79.1826 31.1819 79.2096 31.0739C79.2366 30.9659 79.2636 30.831 79.2636 30.723C79.2636 30.6151 79.2906 30.5341 79.2906 30.4531V27.4842C79.2906 27.3492 79.2366 27.2952 79.1016 27.2952H78.3459C78.2919 27.2952 78.2379 27.3222 78.2109 27.3492C78.1839 27.3762 78.157 27.4302 78.157 27.5112V30.4801C78.157 30.5881 78.13 30.669 78.103 30.75C78.076 30.831 78.022 30.885 77.941 30.912C77.8601 30.9389 77.7791 30.9659 77.6441 30.9659C77.5092 30.9659 77.4282 30.9389 77.3472 30.912C77.2663 30.885 77.2123 30.831 77.1853 30.75C77.1583 30.669 77.1313 30.5881 77.1313 30.4801C77.1313 30.3721 77.1043 30.2642 77.1313 30.1292V27.5112C77.1313 27.3762 77.0773 27.3222 76.9424 27.3222L76.1057 27.2683ZM75.242 30.777C75.3769 30.777 75.4309 30.831 75.4309 30.9659V31.7217C75.4309 31.7756 75.4039 31.8296 75.3769 31.8566C75.35 31.8836 75.296 31.9106 75.215 31.9106H74.4593C74.4053 31.9106 74.3513 31.8836 74.3243 31.8566C74.2973 31.8296 74.2703 31.7756 74.2703 31.7217V30.9659C74.2703 30.912 74.2973 30.858 74.3243 30.804C74.3513 30.777 74.4053 30.75 74.4593 30.75L75.242 30.777ZM72.6239 30.0753V30.4261C72.6239 30.5341 72.5969 30.6151 72.5699 30.696C72.543 30.777 72.489 30.831 72.408 30.858C72.327 30.885 72.2461 30.912 72.1111 30.912C71.9762 30.912 71.8952 30.885 71.8142 30.858C71.7332 30.831 71.6793 30.777 71.6523 30.696C71.6253 30.6151 71.5983 30.5341 71.5983 30.4261C71.5983 30.3182 71.5713 30.2102 71.5983 30.0753V29.1306V28.7797C71.5983 28.6718 71.6253 28.5908 71.6523 28.5098C71.6793 28.4288 71.7332 28.3749 71.8142 28.3479C71.8952 28.3209 71.9762 28.2939 72.1111 28.2939C72.2461 28.2939 72.327 28.3209 72.408 28.3479C72.489 28.3749 72.543 28.4288 72.5699 28.5098C72.5969 28.5908 72.6239 28.6718 72.6239 28.7797V30.0753ZM73.7845 28.7527C73.7845 28.6718 73.7845 28.5908 73.7575 28.4828C73.7575 28.3749 73.7305 28.2669 73.7035 28.1319C73.6765 28.024 73.6226 27.889 73.5416 27.7811C73.4606 27.6731 73.3797 27.5651 73.2447 27.4572C73.1098 27.3492 72.9748 27.2952 72.7859 27.2143C72.5969 27.1603 72.381 27.1333 72.1111 27.1333C71.8412 27.1333 71.6253 27.1603 71.4364 27.2143C71.2474 27.2683 71.0855 27.3492 70.9775 27.4572C70.8426 27.5651 70.7616 27.6731 70.6806 27.7811C70.5997 27.889 70.5457 28.024 70.5187 28.1319C70.4917 28.2399 70.4647 28.3749 70.4377 28.4828C70.4377 28.5908 70.4107 28.6718 70.4107 28.7527V30.4261C70.4107 30.5071 70.4107 30.5881 70.4377 30.696C70.4377 30.804 70.4647 30.912 70.5187 31.0469C70.5457 31.1549 70.5997 31.2898 70.6806 31.3978C70.7616 31.5057 70.8426 31.6137 70.9775 31.7217C71.1125 31.8296 71.2474 31.8836 71.4364 31.9646C71.6253 32.0186 71.8412 32.0456 72.1111 32.0456C72.381 32.0456 72.5969 32.0186 72.7859 31.9646C72.9748 31.9106 73.1367 31.8296 73.2447 31.7217C73.3797 31.6137 73.4606 31.5057 73.5416 31.3978C73.6226 31.2898 73.6765 31.1549 73.7035 31.0469C73.7305 30.9389 73.7575 30.804 73.7575 30.696C73.7575 30.5881 73.7845 30.5071 73.7845 30.4261V28.7527ZM66.713 30.4261C66.713 30.5071 66.713 30.5881 66.74 30.696C66.74 30.804 66.767 30.912 66.821 31.0469C66.848 31.1549 66.902 31.2898 66.9829 31.3978C67.0639 31.5057 67.1449 31.6137 67.2798 31.7217C67.4148 31.8296 67.5497 31.8836 67.7387 31.9646C67.9276 32.0186 68.1435 32.0456 68.4134 32.0456C68.6563 32.0456 68.8453 32.0186 69.0342 31.9646C69.1962 31.9106 69.3581 31.8566 69.4661 31.7756C69.574 31.6947 69.682 31.6137 69.7629 31.5057C69.8439 31.3978 69.8979 31.2898 69.9519 31.1819C70.0059 31.0739 70.0329 30.9659 70.0329 30.858C70.0598 30.75 70.0598 30.669 70.0598 30.5611C70.0598 30.5071 70.0598 30.4801 70.0329 30.4261C70.0059 30.3991 69.9789 30.3721 69.9249 30.3721L69.1692 30.2102C69.1152 30.1832 69.0342 30.2102 69.0072 30.2372C68.9532 30.2642 68.9262 30.3182 68.9262 30.3991C68.9262 30.5071 68.8993 30.5881 68.8453 30.669C68.8183 30.75 68.7643 30.804 68.6833 30.831C68.6024 30.858 68.5214 30.885 68.3864 30.885C68.2515 30.885 68.1705 30.858 68.0895 30.831C68.0086 30.804 67.9546 30.75 67.9276 30.669C67.9006 30.5881 67.8736 30.5071 67.8736 30.3991C67.8736 30.2912 67.8466 30.1832 67.8736 30.0483V29.1036V28.7527C67.8736 28.6448 67.9006 28.5638 67.9276 28.4828C67.9546 28.4018 68.0086 28.3479 68.0895 28.3209C68.1705 28.2939 68.2515 28.2669 68.3864 28.2669C68.4944 28.2669 68.6024 28.2939 68.6833 28.3209C68.7643 28.3479 68.8183 28.4018 68.8453 28.4828C68.8723 28.5638 68.8993 28.6448 68.8993 28.7257C68.8993 28.8067 68.9262 28.8607 68.9802 28.8877C69.0342 28.9147 69.0882 28.9417 69.1692 28.9417L69.8979 28.7797C69.9519 28.7797 69.9789 28.7527 70.0059 28.7257C70.0329 28.6987 70.0329 28.6448 70.0329 28.6178C70.0329 28.5368 70.0059 28.4288 70.0059 28.3209L69.9249 27.997C69.8709 27.889 69.8169 27.7811 69.736 27.6731C69.655 27.5651 69.547 27.4842 69.4391 27.4032C69.3041 27.3222 69.1692 27.2683 69.0072 27.2143C68.8453 27.1603 68.6294 27.1333 68.3864 27.1333C68.1165 27.1333 67.9006 27.1603 67.7117 27.2143C67.5228 27.2683 67.3608 27.3492 67.2528 27.4572C67.1179 27.5651 67.0369 27.6731 66.956 27.7811C66.875 27.889 66.821 28.024 66.794 28.1319C66.767 28.2399 66.74 28.3749 66.713 28.4828C66.713 28.5908 66.686 28.6718 66.686 28.7527V30.4261H66.713ZM66.0923 30.777C66.2272 30.777 66.2812 30.831 66.2812 30.9659V31.7217C66.2812 31.7756 66.2542 31.8296 66.2272 31.8566C66.2002 31.8836 66.1462 31.9106 66.0653 31.9106H65.3095C65.2556 31.9106 65.2016 31.8836 65.1746 31.8566C65.1476 31.8296 65.1206 31.7756 65.1206 31.7217V30.9659C65.1206 30.912 65.1476 30.858 65.1746 30.804C65.2016 30.777 65.2556 30.75 65.3095 30.75L66.0923 30.777Z"
          fill="#4C4C4C"
        />
        <path
          d="M16.6726 13.4228C14.1624 13.2069 1.9088 15.2042 0.991123 13.0449C-0.54733 9.4552 12.3271 11.4795 14.0545 11.5335C14.9182 11.5605 15.9978 11.7224 16.6186 11.5605C17.0504 11.4255 17.3473 10.7238 17.8331 10.4539C18.9128 9.80608 20.6671 10.157 22.1786 10.2919C23.2042 10.3729 24.2029 10.4808 25.2825 10.5618C23.744 10.7777 22.0976 10.9937 20.4782 11.2096C20.2893 11.2366 19.9924 11.1556 19.8574 11.3715C21.5038 11.6414 23.3662 11.6954 25.1475 11.8304C23.3932 12.1003 21.4229 12.1542 19.6955 12.4781C19.8034 12.6671 20.1273 12.6131 20.3163 12.6401C21.8547 12.748 23.5551 12.883 25.1745 12.964C23.5011 13.2339 21.5578 13.2878 19.8844 13.6117C19.9384 13.8816 20.2893 13.8007 20.4512 13.8007C21.9897 13.9896 23.717 14.2055 25.3095 14.3405C23.5551 14.4754 21.3959 14.8803 19.5875 14.9882C18.184 15.0692 17.3473 14.2595 16.6726 13.4228Z"
          fill="#4C4C4C"
        />
        <path
          d="M12.3272 13.6387C14.2705 13.4767 15.9169 13.3418 16.6727 13.3958C17.0236 13.8276 17.3744 14.2325 17.8603 14.5294C18.3191 14.8263 18.8589 15.0152 19.5606 14.9612C20.5593 14.9072 21.6659 14.7453 22.7455 14.6103C23.5282 14.5024 24.284 14.3944 24.9857 14.3404C24.284 14.2865 23.5822 14.2055 22.8535 14.1245C22.0168 14.0435 21.2071 13.9356 20.4513 13.8276H20.3164C20.1274 13.8276 19.8845 13.8276 19.8575 13.6117V13.5847H19.8845C20.8022 13.3958 21.8278 13.2878 22.8535 13.2068C23.5552 13.1529 24.257 13.0719 24.9047 12.9909C23.6902 12.9099 22.4216 12.829 21.2341 12.748C20.9372 12.721 20.6403 12.694 20.3434 12.694H20.2084C20.0195 12.694 19.8036 12.694 19.6956 12.5321L19.6686 12.5051H19.6956C20.6673 12.3162 21.7199 12.2082 22.7725 12.1272C23.4743 12.0732 24.203 11.9923 24.8778 11.9113C24.5269 11.8843 24.149 11.8573 23.7981 11.8303C22.4486 11.7494 21.0721 11.6684 19.8575 11.4795H19.8036L19.8306 11.4525C19.9385 11.2905 20.1274 11.2905 20.2894 11.2905H20.4513L21.7469 11.1286C22.8265 10.9936 23.9331 10.8317 24.9587 10.6967C24.3379 10.6428 23.7172 10.5888 23.1234 10.5348C22.7995 10.5078 22.5026 10.4808 22.1517 10.4538L21.342 10.3728C20.0465 10.2379 18.697 10.076 17.8333 10.6158C17.6173 10.7507 17.4284 10.9666 17.2665 11.1826C17.0505 11.4255 16.8616 11.6684 16.6187 11.7494C16.1868 11.8573 15.5391 11.8303 14.8913 11.7763C14.5944 11.7494 14.2975 11.7224 14.0276 11.7224C13.7307 11.7224 13.1099 11.6414 12.3002 11.5604C9.38526 11.1016 3.90621 10.5348 1.77397 11.4525C1.01824 11.7763 0.694354 12.2622 1.01824 13.0449C1.63902 14.5294 7.79283 14.0166 12.3272 13.6387ZM16.6727 13.4498C15.9169 13.3958 14.2705 13.5307 12.3272 13.6927C7.79283 14.0705 1.61203 14.5834 0.964258 13.0449C0.613382 12.2352 0.964258 11.7224 1.74698 11.3715C3.90621 10.4538 9.38527 11.0206 12.3272 11.3175C13.1369 11.3985 13.7577 11.4795 14.0546 11.4795C14.3245 11.4795 14.6214 11.5064 14.9183 11.5334C15.5661 11.5874 16.1868 11.6144 16.6187 11.5064C16.8346 11.4525 17.0236 11.2095 17.2395 10.9666C17.4284 10.7507 17.5903 10.5348 17.8333 10.3998C18.7239 9.86003 20.0735 10.022 21.396 10.1569L22.2057 10.2379C22.5026 10.2649 22.8535 10.2919 23.1774 10.3189C23.8791 10.3728 24.5809 10.4538 25.3096 10.4808L25.6065 10.5078L25.3366 10.5618C24.23 10.7237 23.0424 10.8857 21.8548 11.0476L20.5593 11.2096H20.3974C20.2624 11.2096 20.1005 11.2096 19.9925 11.3175C21.2071 11.5064 22.5566 11.5874 23.9061 11.6684C24.3649 11.6954 24.7968 11.7224 25.2556 11.7494L25.5255 11.7763L25.2556 11.8033C24.4999 11.9113 23.6902 11.9923 22.8805 12.0732C21.8548 12.1812 20.8022 12.2622 19.8575 12.4511C19.9385 12.5591 20.1274 12.5591 20.2894 12.5591H20.4243C20.7212 12.5861 21.0181 12.6131 21.315 12.6131C22.6106 12.721 23.9601 12.802 25.2556 12.883L25.5255 12.9099L25.2556 12.9639C24.4999 13.0719 23.7172 13.1529 22.9345 13.2338C21.9358 13.3418 20.9372 13.4228 20.0195 13.6117C20.0735 13.7736 20.2624 13.7466 20.4243 13.7466H20.5593C21.342 13.8276 22.1517 13.9356 22.9614 14.0435C23.7712 14.1245 24.6079 14.2325 25.3906 14.2865V14.3404C24.6079 14.3944 23.7172 14.5294 22.8265 14.6373C21.7469 14.7723 20.6403 14.9342 19.6416 14.9882C18.9399 15.0422 18.3731 14.8533 17.9142 14.5564C17.3744 14.2865 16.9966 13.8816 16.6727 13.4498Z"
          fill="#4C4C4C"
        />
      </g>
      <defs>
        <clipPath id="clip0_116_3272">
          <rect
            width="82.6446"
            height="32"
            fill="white"
            transform="translate(0.883301 0.00012207)"
          />
        </clipPath>
      </defs>
    </svg>
 
