


    <svg
      xmlns="http://www.w3.org/2000/svg"
      width="61"
      height="32"
      viewBox="0 0 61 32"
      fill="none"
    >
      <path
        fillRule="evenodd"
        clipRule="evenodd"
        d="M26.1012 27.7552C23.5171 29.8775 20.1026 31.1693 16.5034 31.1693C8.01319 31.1693 1.2072 24.34 1.2072 15.9655C1.2072 7.56756 8.01319 0.738225 16.5034 0.738225C22.1329 0.738225 27.0243 3.78367 29.7004 8.39801C30.0694 8.49036 30.3465 8.58271 30.7152 8.67506C28.0394 3.50697 22.6867 0.00012207 16.5034 0.00012207C7.64379 0.00012207 0.46875 7.10616 0.46875 15.9655C0.46875 24.8021 7.64414 32.0001 16.5034 32.0001C20.6564 32.0001 24.4399 30.3392 27.301 27.7552H26.1012Z"
        fill="#4C4C4C"
      />
      <path
        fillRule="evenodd"
        clipRule="evenodd"
        d="M18.5337 27.0173H60.4081V20.7417H18.5337V27.0173Z"
        fill="#4C4C4C"
      />
      <path
        fillRule="evenodd"
        clipRule="evenodd"
        d="M20.6561 9.50508L20.4714 10.3359H18.4411C17.8874 16.2424 17.5183 21.0178 17.1493 23.2331C16.3188 27.2013 12.6273 29.416 10.2279 29.416C9.39747 29.416 8.38232 29.0473 8.38232 28.0321C8.38232 27.4784 8.84372 27.017 9.39747 27.017C10.2279 27.017 10.874 27.6627 11.3354 28.4009C12.6276 27.6627 12.812 27.017 13.3657 24.4326C13.6428 23.2331 14.3809 14.6732 14.7499 10.3359H13.0887L13.2734 9.50508H14.9346L15.1193 8.02888C16.0421 2.58408 20.0104 1.93799 21.4872 1.93799C22.2254 1.93799 23.7019 2.30704 23.7019 3.32219C23.7019 3.96794 23.1482 4.24499 22.5944 4.24499C21.5793 4.24499 21.1179 3.69124 20.6561 2.86044C18.9949 3.59889 18.7182 7.65948 18.5335 9.50474H20.6561V9.50508ZM20.4718 17.0725C20.4718 12.7356 23.2405 8.95168 27.9468 8.95168C30.9003 8.95168 32.5608 10.2439 32.5608 13.1046C32.5608 17.4419 29.7924 21.1105 25.0858 21.1105C22.133 21.1105 20.4718 19.8183 20.4718 17.0725ZM28.7776 13.7507C28.7776 12.6432 28.6853 9.96717 27.0244 9.96717C24.625 9.96717 24.2556 14.6735 24.2556 16.4271C24.2556 17.4423 24.348 20.188 26.0089 20.188C28.4082 20.1877 28.7776 15.504 28.7776 13.7507ZM33.5763 17.0725C33.5763 12.7356 36.4374 8.95168 41.1438 8.95168C44.0049 8.95168 45.7348 10.2439 45.7348 13.1046C45.7348 17.4419 42.897 21.1105 38.1907 21.1105C35.3296 21.1105 33.5763 19.8183 33.5763 17.0725ZM41.9742 13.7507C41.9742 12.6432 41.8822 9.96717 40.221 9.96717C37.7293 9.96717 37.4526 14.6735 37.4526 16.4271C37.4526 17.4423 37.4526 20.188 39.1135 20.188C41.6048 20.1877 41.9742 15.504 41.9742 13.7507ZM60.0395 19.7263C58.378 20.4644 56.3477 21.1101 54.9638 21.1101C54.2257 21.1101 54.3174 20.0023 54.3174 19.5412C54.3174 18.9882 54.3174 18.249 54.5024 16.7962L54.4097 16.7035C53.4869 18.6184 51.6413 21.1101 49.242 21.1101C47.396 21.1101 46.5652 19.1722 46.5652 17.5343C46.5652 13.4733 49.795 9.13638 54.4097 9.13638H55.3325C55.7019 6.27529 55.7019 5.07578 55.7019 4.15264C55.7019 3.87594 55.7019 3.59889 55.4249 3.59889C55.1478 3.59889 54.7791 3.69124 53.856 3.96794L53.6716 3.22984C55.5176 2.58409 57.5478 2.21469 59.3931 2.12234C59.5781 2.12234 59.6702 2.12234 59.6702 2.49139C59.6702 4.89074 57.8242 17.4416 57.8242 18.7111C57.8242 18.9882 57.8242 19.4492 58.1936 19.4492C58.378 19.4492 59.0244 19.2642 59.7625 18.9878L60.0395 19.7263ZM54.0403 15.781C54.6868 14.2121 54.8711 12.6432 55.2405 10.2439C55.0555 10.1512 54.8711 10.1512 54.7791 10.1512C51.918 10.1512 50.5335 14.3965 50.5335 16.7035C50.5335 17.2572 50.6262 18.6184 51.4566 18.6184C52.6565 18.6188 53.6716 16.7038 54.0403 15.781Z"
        fill="#4C4C4C"
      />
      <path
        fillRule="evenodd"
        clipRule="evenodd"
        d="M21.0254 22.2178H22.0405L23.3324 24.1558V22.2178H24.1632V25.909H23.4247L21.8558 23.7871V25.909H21.0254V22.2178ZM26.5622 22.2178H29.4233V22.9563H27.6697V23.6017H28.7775V24.4325H27.6697V25.0782H29.4233V25.909H26.5622V22.2178ZM32.4691 22.9563H31.4539V22.2178H34.5914V22.9563H33.5762V25.909H32.4691V22.9563ZM36.4373 22.2178H37.5441L38.0062 24.1558H38.0979L38.5593 22.2178H39.4828L39.9438 24.1558H40.0365L40.4979 22.2178H41.328L40.4052 25.909H39.4828L38.9287 23.8787L38.3749 25.909H37.4525L36.4373 22.2178ZM45.0889 26.0017C44.0048 26.0017 43.2663 25.2636 43.2663 24.0634C43.2663 22.8639 44.0044 22.1255 45.0889 22.1255C46.1967 22.1255 46.8422 22.8636 46.8422 24.0634C46.8422 25.2633 46.1964 26.0017 45.0889 26.0017ZM44.4432 24.0631C44.4432 25.0782 44.7202 25.2633 45.0889 25.2633C45.4583 25.2633 45.7347 25.0782 45.7347 24.0631C45.7347 23.0486 45.4583 22.8636 45.0889 22.8636C44.6275 22.8636 44.4432 23.1406 44.4432 24.0631ZM49.0568 22.2178H50.9028C52.1023 22.2178 52.3793 22.7709 52.3793 23.233C52.3793 23.6944 52.1023 24.0631 51.6412 24.1558L52.3793 25.909H51.1798L50.6261 24.3401H50.1646V25.909H49.0568V22.2178ZM50.1646 23.6944H50.7184C50.9948 23.6944 51.2721 23.5093 51.2721 23.325C51.2721 23.0486 51.0871 22.8636 50.7184 22.8636H50.1646V23.6944ZM54.6866 22.2178H55.7941V23.6944L56.9013 22.2178H57.9164L56.9936 23.4173L58.1008 25.909H56.9936L56.2555 24.3401L55.7941 24.9866V25.909H54.6866V22.2178Z"
        fill="white"
      />
    </svg>
 
