
    <svg
      xmlns="http://www.w3.org/2000/svg"
      width="67"
      height="32"
      viewBox="0 0 67 32"
      fill="none"
    >
      <path
        fillRule="evenodd"
        clipRule="evenodd"
        d="M1.50477 4.43049H5.71068C5.33393 4.17364 4.62467 3.84656 3.45718 3.84656C2.61212 3.84656 1.97929 4.08246 1.50477 4.43049ZM6.41683 4.43049H10.816C10.2976 4.08246 9.57204 3.84656 8.55859 3.84656C7.48849 3.84656 6.79591 4.17364 6.41683 4.43049ZM0.911133 5.01443H11.4445C11.2677 4.78735 11.0554 4.59018 10.816 4.43049H6.41683C6.17201 4.59617 6.05793 4.73236 6.05793 4.73236C6.05793 4.73236 5.95318 4.59617 5.71068 4.43049H1.50477C1.28042 4.59626 1.08057 4.79284 0.911133 5.01443Z"
        fill="#4C4C4C"
      />
      <path
        fillRule="evenodd"
        clipRule="evenodd"
        d="M0.559082 5.57877H11.7866C11.6947 5.37832 11.58 5.18915 11.4448 5.01501H0.910997C0.771317 5.1966 0.655306 5.38788 0.559082 5.57877Z"
        fill="#4C4C4C"
      />
      <path
        fillRule="evenodd"
        clipRule="evenodd"
        d="M0.318743 6.16206H11.9909C11.9407 5.96153 11.8721 5.76606 11.786 5.57812H0.558914C0.458811 5.77678 0.380435 5.97505 0.318743 6.16206ZM0.16626 6.74639H2.85276C3.02581 6.54541 3.31099 6.36382 3.77698 6.36382C4.24335 6.36382 4.50874 6.54579 4.65928 6.74639H7.63679C7.81255 6.54541 8.10277 6.36382 8.57768 6.36382C9.02621 6.36382 9.29354 6.54579 9.45262 6.74639H12.0895C12.0716 6.54949 12.0385 6.35426 11.9905 6.16245H0.318743C0.255978 6.35378 0.205053 6.5488 0.16626 6.74639Z"
        fill="#4C4C4C"
      />
      <path
        fillRule="evenodd"
        clipRule="evenodd"
        d="M0.0961348 7.31035H2.59679V7.26999C2.59679 7.26999 2.63947 6.99413 2.85287 6.74658H0.166362C0.105059 7.06125 0.0961348 7.26999 0.0961348 7.26999V7.31035ZM4.85765 7.31035H7.37848V7.26999C7.37848 7.26999 7.42155 6.99413 7.63766 6.74658H4.66016C4.77271 6.89969 4.84115 7.08072 4.85804 7.26999V7.31035H4.85765ZM9.67854 7.31035H12.0993V7.26999C12.0993 7.26999 12.1187 7.06086 12.0899 6.74658H9.45311C9.64789 6.99413 9.67854 7.26999 9.67854 7.26999V7.31035ZM0.0949707 7.89428H2.59679V7.31035H0.0961348L0.0949707 7.89428ZM4.85765 7.89428H7.37848V7.31035H4.85765V7.89428ZM9.67854 7.89428H12.0993V7.31035H9.67854V7.89428Z"
        fill="#4C4C4C"
      />
      <path
        fillRule="evenodd"
        clipRule="evenodd"
        d="M0.093837 8.47896H2.5972V7.89502H0.0953893L0.093837 8.47896ZM4.85768 8.47896H7.37851V7.89502H4.85768V8.47896ZM9.67857 8.47896H12.0993V7.89502H9.67857V8.47896ZM0.0922852 9.04272H2.59682V8.47896H0.0934493L0.0922852 9.04272ZM4.85768 9.04272H7.37851V8.47896H4.85768V9.04272ZM9.67857 9.04272H12.0993V8.47896H9.67857V9.04272Z"
        fill="#4C4C4C"
      />
      <path
        fillRule="evenodd"
        clipRule="evenodd"
        d="M0.0914961 9.62605H2.59719V9.04211H0.0922721L0.0914961 9.62605ZM4.85767 9.62605H7.3785V9.04211H4.85767V9.62605ZM9.67855 9.62605H12.0993V9.04211H9.67855V9.62605ZM0.090332 10.1898H2.59719V9.62605H0.0914961L0.090332 10.1898ZM4.85767 10.1898H7.3785V9.62605H4.85767V10.1898ZM9.67855 10.1898H12.0993V9.62605H9.67855V10.1898Z"
        fill="#4C4C4C"
      />
      <path
        fillRule="evenodd"
        clipRule="evenodd"
        d="M0.0888106 10.7743H2.59683V10.1899H0.0899747L0.0888106 10.7743ZM4.8577 10.7743H7.37853V10.1899H4.8577V10.7743ZM9.67858 10.7743H12.0993V10.1899H9.67858V10.7743ZM0.0876465 11.3582H2.59722V10.7743H0.0891984L0.0876465 11.3582ZM4.8577 11.3582H7.37853V10.7743H4.8577V11.3582ZM9.67858 11.3582H12.0993V10.7743H9.67858V11.3582Z"
        fill="#4C4C4C"
      />
      <path
        fillRule="evenodd"
        clipRule="evenodd"
        d="M0.0864258 11.9219H2.59717V11.3582H0.0875899L0.0864258 11.9219ZM4.85765 11.9219H7.37847V11.3582H4.85765V11.9219ZM9.67853 11.9219H12.0992V11.3582H9.67853V11.9219Z"
        fill="#4C4C4C"
      />
      <path
        fillRule="evenodd"
        clipRule="evenodd"
        d="M0.0854492 12.5062H2.59735V11.9219H0.0866129L0.0854492 12.5062ZM4.85783 12.5062H7.37866V11.9219H4.85783V12.5062ZM9.67871 12.5062H12.0994V11.9219H9.67871V12.5062Z"
        fill="#4C4C4C"
      />
      <path
        fillRule="evenodd"
        clipRule="evenodd"
        d="M0.0837402 13.0898H2.5972V12.5059H0.0852925L0.0837402 13.0898ZM4.85768 13.0898H7.3785V12.5059H4.85768V13.0898ZM9.67856 13.0898H12.0993V12.5059H9.67856V13.0898Z"
        fill="#4C4C4C"
      />
      <path
        fillRule="evenodd"
        clipRule="evenodd"
        d="M0.0831819 13.6537H2.59741V13.09H0.0839578L0.0831819 13.6537ZM4.85789 13.6537H7.37872V13.09H4.85789V13.6537ZM9.67878 13.6537H12.0995V13.09H9.67878V13.6537ZM0.08163 14.2377H2.59703V13.6537H0.0827941L0.08163 14.2377ZM4.85789 14.2377H7.37872V13.6537H4.85789V14.2377ZM9.67878 14.2377H12.0995V13.6537H9.67878V14.2377ZM0.0800781 14.822H2.59703V14.2381H0.08163L0.0800781 14.822ZM4.85789 14.822H7.37872V14.2381H4.85789V14.822ZM9.67878 14.822H12.0995V14.2381H9.67878V14.822Z"
        fill="#4C4C4C"
      />
      <path
        fillRule="evenodd"
        clipRule="evenodd"
        d="M0.0788008 15.3855H2.59691V14.8218H0.0799649L0.0788008 15.3855ZM4.85778 15.3855H7.37861V14.8218H4.85778V15.3855ZM9.67866 15.3855H12.0994V14.8218H9.67866V15.3855ZM0.0776367 15.9695H2.59691V15.3855H0.0788008L0.0776367 15.9695ZM4.85778 15.9695H7.37861V15.3855H4.85778V15.9695ZM9.67866 15.9695H12.0994V15.3855H9.67866V15.9695Z"
        fill="#4C4C4C"
      />
      <path
        fillRule="evenodd"
        clipRule="evenodd"
        d="M0.076416 16.5535H2.59724V15.9696H0.0779683L0.076416 16.5535ZM4.85772 16.5535H7.37855V15.9696H4.85772V16.5535ZM9.67861 16.5535H12.0993V15.9696H9.67861V16.5535Z"
        fill="#4C4C4C"
      />
      <path
        fillRule="evenodd"
        clipRule="evenodd"
        d="M0.0751387 17.1171H2.59713V16.5533H0.0763024L0.0751387 17.1171ZM4.85761 17.1171H7.37844V16.5533H4.85761V17.1171ZM9.67849 17.1171H12.0992V16.5533H9.67849V17.1171ZM0.0739746 17.7014H2.59713V17.1171H0.0751387L0.0739746 17.7014ZM4.85761 17.7014H7.37844V17.1171H4.85761V17.7014ZM9.67849 17.7014H12.0992V17.1171H9.67849V17.7014Z"
        fill="#4C4C4C"
      />
      <path
        fillRule="evenodd"
        clipRule="evenodd"
        d="M0.0726407 18.2653H2.59696V17.7015H0.0738044L0.0726407 18.2653ZM4.85783 18.2653H7.37865V17.7015H4.85783V18.2653ZM9.67871 18.2653H12.0994V17.7015H9.67871V18.2653ZM0.0714766 18.8496H2.59735V18.2653H0.0730285L0.0714766 18.8496ZM4.85783 18.8496H7.37865V18.2653H4.85783V18.8496ZM9.67871 18.8496H12.0994V18.2653H9.67871V18.8496ZM0.0703125 19.4332H2.59735V18.8496H0.0714766L0.0703125 19.4332ZM4.85783 19.4332H7.37865V18.8496H4.85783V19.4332ZM9.67871 19.4332H12.0994V18.8496H9.67871V19.4332Z"
        fill="#4C4C4C"
      />
      <path
        fillRule="evenodd"
        clipRule="evenodd"
        d="M0.0685469 19.9979H2.59713V19.4333H0.0700988L0.0685469 19.9979ZM4.85761 19.9979H7.37844V19.4333H4.85761V19.9979ZM9.6785 19.9979H12.0992V19.4333H9.6785V19.9979ZM0.0673828 20.5814H2.59675V19.9979H0.0681588L0.0673828 20.5814ZM4.85761 20.5814H7.37844V19.9979H4.85761V20.5814ZM9.6785 20.5814H12.0992V19.9979H9.6785V20.5814Z"
        fill="#4C4C4C"
      />
      <path
        fillRule="evenodd"
        clipRule="evenodd"
        d="M0.0662491 21.1655H2.59678V20.5812H0.0674132L0.0662491 21.1655ZM4.85764 21.1655H7.37847V20.5812H4.85764V21.1655ZM9.67853 21.1655H12.0992V20.5812H9.67853V21.1655ZM0.0646973 21.7297H2.59678V21.1659H0.0662491L0.0646973 21.7297ZM4.85764 21.7297H7.37847V21.1659H4.85764V21.7297ZM9.67853 21.7297H12.0992V21.1659H9.67853V21.7297Z"
        fill="#4C4C4C"
      />
      <path
        fillRule="evenodd"
        clipRule="evenodd"
        d="M0.0639648 22.3137H2.59721V21.7294H0.0651289L0.0639648 22.3137ZM4.85769 22.3137H7.37852V21.7294H4.85769V22.3137ZM9.67857 22.3137H12.0993V21.7294H9.67857V22.3137Z"
        fill="#4C4C4C"
      />
      <path
        fillRule="evenodd"
        clipRule="evenodd"
        d="M0.0624434 22.8969H2.59685V22.3134H0.0636071L0.0624434 22.8969ZM4.85772 22.8969H7.37854V22.3134H4.85772V22.8969ZM9.6786 22.8969H12.0993V22.3134H9.6786V22.8969ZM0.0612793 23.4607H2.59685V22.8969H0.0624434L0.0612793 23.4607ZM4.85772 23.4607H7.37854V22.8969H4.85772V23.4607ZM9.6786 23.4607H12.0993V22.8969H9.6786V23.4607Z"
        fill="#4C4C4C"
      />
      <path
        fillRule="evenodd"
        clipRule="evenodd"
        d="M0.0601892 24.0453H2.59692V23.4609H0.0613532L0.0601892 24.0453ZM4.85779 24.0453H7.37862V23.4609H4.85779V24.0453ZM9.67868 24.0453H12.0994V23.4609H9.67868V24.0453ZM0.0594132 24.6296H2.59731V24.0453H0.0605773L0.0594132 24.6296ZM4.85779 24.6296H7.37862V24.0453H4.85779V24.6296ZM9.67868 24.6296H12.0994V24.0453H9.67868V24.6296ZM0.0578613 25.1933H2.59731V24.6296H0.0594132L0.0578613 25.1933ZM4.85779 25.1933H7.37862V24.6296H4.85779V25.1933ZM9.67868 25.1933H12.0994V24.6296H9.67868V25.1933Z"
        fill="#4C4C4C"
      />
      <path
        fillRule="evenodd"
        clipRule="evenodd"
        d="M0.0566406 25.7767H2.59726V25.1931H0.0578047L0.0566406 25.7767ZM4.85774 25.7767H7.37856V25.1931H4.85774V25.7767ZM9.67862 25.7767H12.0993V25.1931H9.67862V25.7767Z"
        fill="#4C4C4C"
      />
      <path
        fillRule="evenodd"
        clipRule="evenodd"
        d="M30.7244 3.60481H31.0546L30.7244 3.02087V3.60481ZM30.7244 4.20893H31.3968L31.0546 3.60481H30.7244V4.20893Z"
        fill="#4C4C4C"
      />
      <path
        fillRule="evenodd"
        clipRule="evenodd"
        d="M30.7244 4.81322H31.7386L31.3968 4.20911H30.7244V4.81322ZM35.6256 4.81322H37.9861V4.22928H35.6256V4.81322Z"
        fill="#4C4C4C"
      />
      <path
        fillRule="evenodd"
        clipRule="evenodd"
        d="M30.7244 5.41761H32.0808L31.7386 4.81311H30.7244V5.41761ZM35.6256 5.41761H37.9861V4.81311H35.6256V5.41761Z"
        fill="#4C4C4C"
      />
      <path
        fillRule="evenodd"
        clipRule="evenodd"
        d="M30.7244 6.00142H32.411L32.0808 5.41748H30.7244V6.00142ZM35.6256 6.00142H37.9861V5.41748H35.6256V6.00142Z"
        fill="#4C4C4C"
      />
      <path
        fillRule="evenodd"
        clipRule="evenodd"
        d="M30.7244 6.6057H32.7532L32.411 6.00159H30.7244V6.6057ZM35.6256 6.6057H37.9861V6.00159H35.6256V6.6057ZM30.7244 7.20981H33.095L32.7532 6.6057H30.7244V7.20981ZM35.6256 7.20981H37.9861V6.6057H35.6256V7.20981Z"
        fill="#4C4C4C"
      />
      <path
        fillRule="evenodd"
        clipRule="evenodd"
        d="M30.7245 7.81344H33.4374L33.0952 7.20972H30.7245V7.81344ZM35.6257 7.81344H37.9863V7.20972H35.6257V7.81344ZM30.7245 8.39777H33.7676L33.437 7.81344H30.7241V8.39777H30.7245ZM35.6257 8.39777H37.9863V7.81344H35.6257V8.39777Z"
        fill="#4C4C4C"
      />
      <path
        fillRule="evenodd"
        clipRule="evenodd"
        d="M30.7244 9.00218H34.1093L33.7674 8.39807H30.7244V9.00218ZM35.6256 9.00218H37.9861V8.39807H35.6256V9.00218ZM30.7244 9.6063H34.4519L34.1093 9.00218H30.7244V9.6063ZM35.6256 9.6063H37.9861V9.00218H35.6256V9.6063Z"
        fill="#4C4C4C"
      />
      <path
        fillRule="evenodd"
        clipRule="evenodd"
        d="M30.7244 10.2105H34.7937L34.4519 9.60596H30.7244V10.2105ZM35.6256 10.2105H37.9861V9.60596H35.6256V10.2105Z"
        fill="#4C4C4C"
      />
      <path
        fillRule="evenodd"
        clipRule="evenodd"
        d="M30.7244 10.7939H35.1239L34.7933 10.21H30.7244V10.7939ZM35.6256 10.7939H37.9861V10.21H35.6256V10.7939ZM30.7244 11.398H35.4657L35.1239 10.7939H30.7244V11.398ZM35.6256 11.398H37.9861V10.7939H35.6256V11.398Z"
        fill="#4C4C4C"
      />
      <path
        fillRule="evenodd"
        clipRule="evenodd"
        d="M30.7244 12.0022H37.9861V11.3981H35.6256V11.6805L35.4657 11.3981H30.7244V12.0022ZM30.7244 12.6063H33.0446V12.0627L33.3946 12.6063H37.9861V12.0022H30.7244V12.6063Z"
        fill="#4C4C4C"
      />
      <path
        fillRule="evenodd"
        clipRule="evenodd"
        d="M30.7244 13.1907H33.0446V12.6068H30.7244V13.1907ZM33.7698 13.1907H37.9861V12.6068H33.3946L33.7698 13.1907Z"
        fill="#4C4C4C"
      />
      <path
        fillRule="evenodd"
        clipRule="evenodd"
        d="M30.7244 13.795H33.0446V13.1909H30.7244V13.795ZM34.1585 13.795H37.9861V13.1909H33.7698L34.1585 13.795Z"
        fill="#4C4C4C"
      />
      <path
        fillRule="evenodd"
        clipRule="evenodd"
        d="M30.7244 14.3988H33.0446V13.7947H30.7244V14.3988ZM34.5473 14.3988H37.9861V13.7947H34.1585L34.5473 14.3988Z"
        fill="#4C4C4C"
      />
      <path
        fillRule="evenodd"
        clipRule="evenodd"
        d="M30.7244 14.983H33.0446V14.3987H30.7244V14.983ZM34.9225 14.983H37.9861V14.3987H34.5473L34.9225 14.983Z"
        fill="#4C4C4C"
      />
      <path
        fillRule="evenodd"
        clipRule="evenodd"
        d="M30.7244 15.5871H33.0446V14.983H30.7244V15.5871ZM35.3109 15.5871H37.9861V14.983H34.9225L35.3109 15.5871Z"
        fill="#4C4C4C"
      />
      <path
        fillRule="evenodd"
        clipRule="evenodd"
        d="M30.7244 16.1913H33.0446V15.5872H30.7244V16.1913ZM35.6997 16.1913H37.9861V15.5872H35.3109L35.6997 16.1913ZM30.7244 16.7954H33.0446V16.1913H30.7244V16.7954ZM35.7257 16.7954H37.9861V16.1913H35.6997L35.7253 16.2316V16.7954H35.7257ZM30.7244 17.3797H33.0446V16.7954H30.7244V17.3797ZM35.7257 17.3797H37.9861V16.7954H35.7257V17.3797Z"
        fill="#4C4C4C"
      />
      <path
        fillRule="evenodd"
        clipRule="evenodd"
        d="M30.7244 17.9831H33.0446V17.379H30.7244V17.9831ZM35.7257 17.9831H37.9861V17.379H35.7257V17.9831ZM30.7244 18.5873H33.0446V17.9831H30.7244V18.5873ZM35.7257 18.5873H37.9861V17.9831H35.7257V18.5873Z"
        fill="#4C4C4C"
      />
      <path
        fillRule="evenodd"
        clipRule="evenodd"
        d="M30.7244 19.1921H33.0446V18.5872H30.7244V19.1921ZM35.7257 19.1921H37.9861V18.5872H35.7257V19.1921Z"
        fill="#4C4C4C"
      />
      <path
        fillRule="evenodd"
        clipRule="evenodd"
        d="M30.7244 19.7757H33.0446V19.1921H30.7244V19.7757ZM35.7257 19.7757H37.9861V19.1921H35.7257V19.7757ZM30.7244 20.3806H33.0446V19.7757H30.7244V20.3806ZM35.7257 20.3806H37.9861V19.7757H35.7257V20.3806Z"
        fill="#4C4C4C"
      />
      <path
        fillRule="evenodd"
        clipRule="evenodd"
        d="M30.7244 20.9847H33.0446V20.3806H30.7244V20.9847ZM35.7257 20.9847H37.9861V20.3806H35.7257V20.9847Z"
        fill="#4C4C4C"
      />
      <path
        fillRule="evenodd"
        clipRule="evenodd"
        d="M30.7244 21.5881H33.0446V20.984H30.7244V21.5881ZM35.7257 21.5881H37.9861V20.984H35.7257V21.5881ZM30.7244 22.1724H33.0446V21.5881H30.7244V22.1724ZM35.7257 22.1724H37.9861V21.5881H35.7257V22.1724Z"
        fill="#4C4C4C"
      />
      <path
        fillRule="evenodd"
        clipRule="evenodd"
        d="M30.7244 22.7768H33.0446V22.1727H30.7244V22.7768ZM35.7257 22.7768H37.9861V22.1727H35.7257V22.7768Z"
        fill="#4C4C4C"
      />
      <path
        fillRule="evenodd"
        clipRule="evenodd"
        d="M30.7244 23.3804H33.0446V22.7762H30.7244V23.3804ZM35.7257 23.3804H37.9861V22.7762H35.7257V23.3804Z"
        fill="#4C4C4C"
      />
      <path
        fillRule="evenodd"
        clipRule="evenodd"
        d="M30.7244 23.9847H33.0446V23.3806H30.7244V23.9847ZM35.7257 23.9847H37.9861V23.3806H35.7257V23.9847Z"
        fill="#4C4C4C"
      />
      <path
        fillRule="evenodd"
        clipRule="evenodd"
        d="M30.7244 24.5689H33.0446V23.9846H30.7244V24.5689ZM35.7257 24.5689H37.9861V23.9846H35.7257V24.5689ZM30.7244 25.1731H33.0446V24.5689H30.7244V25.1731ZM35.7257 25.1731H37.9861V24.5689H35.7257V25.1731Z"
        fill="#4C4C4C"
      />
      <path
        fillRule="evenodd"
        clipRule="evenodd"
        d="M30.7244 25.7768H33.0446V25.1727H30.7244V25.7768ZM35.7257 25.7768H37.9861V25.1727H35.7257V25.7768Z"
        fill="#4C4C4C"
      />
      <path
        fillRule="evenodd"
        clipRule="evenodd"
        d="M51.9573 0.846225H53.81V0C53.81 0 53.0642 0.255303 51.9573 0.846225Z"
        fill="#4C4C4C"
      />
      <path
        fillRule="evenodd"
        clipRule="evenodd"
        d="M50.5249 1.69164H53.8101V0.846191H51.9574C51.468 1.10726 50.99 1.38934 50.5249 1.69164Z"
        fill="#4C4C4C"
      />
      <path
        fillRule="evenodd"
        clipRule="evenodd"
        d="M49.3511 2.51756H53.81V1.69189H50.5248C50.1237 1.95275 49.7322 2.22816 49.3511 2.51756ZM48.3159 3.36339H53.81V2.51756H49.3511C48.9963 2.7874 48.6511 3.06951 48.3159 3.36339ZM47.4158 4.20923H52.9191C53.4654 3.95276 53.8104 3.84684 53.8104 3.84684V3.36339H48.3163C48.0065 3.63489 47.7061 3.917 47.4158 4.20923Z"
        fill="#4C4C4C"
      />
      <path
        fillRule="evenodd"
        clipRule="evenodd"
        d="M46.6281 5.0546H51.4168C51.8965 4.73688 52.3985 4.45407 52.9188 4.20837H47.4154C47.1438 4.48178 46.8813 4.76401 46.6281 5.0546ZM45.9395 5.90044H50.2815C50.6437 5.59737 51.0227 5.31509 51.4168 5.05499H46.6281C46.3895 5.32925 46.1598 5.61121 45.9395 5.90044Z"
        fill="#4C4C4C"
      />
      <path
        fillRule="evenodd"
        clipRule="evenodd"
        d="M45.3347 6.74647H49.3683C49.6581 6.44905 49.9629 6.16673 50.2817 5.90063H45.9396C45.7289 6.17604 45.5272 6.45813 45.3347 6.74647ZM44.8179 7.57213H48.635C48.8667 7.28578 49.1116 7.01026 49.3687 6.74647H45.3351C45.1566 7.01225 44.9847 7.28734 44.8179 7.57213Z"
        fill="#4C4C4C"
      />
      <path
        fillRule="evenodd"
        clipRule="evenodd"
        d="M44.3562 8.41774H48.0081C48.2046 8.12683 48.4137 7.84462 48.6347 7.5719H44.8176C44.6556 7.8493 44.5018 8.13137 44.3562 8.41774ZM43.9578 9.26396H47.4886C47.6554 8.96753 47.8288 8.68584 48.0085 8.41812H44.3566C44.2169 8.69205 44.0835 8.97374 43.9578 9.26396Z"
        fill="#4C4C4C"
      />
      <path
        fillRule="evenodd"
        clipRule="evenodd"
        d="M43.6169 10.1095H47.0581C47.1908 9.82225 47.3344 9.5401 47.4884 9.26367H43.9576C43.8363 9.54245 43.7227 9.8245 43.6169 10.1095Z"
        fill="#4C4C4C"
      />
      <path
        fillRule="evenodd"
        clipRule="evenodd"
        d="M43.33 10.9548H46.706C46.815 10.6623 46.9326 10.3798 47.0575 10.109H43.6164C43.5151 10.3845 43.4197 10.6666 43.33 10.9548ZM43.0984 11.7805H46.4266C46.5132 11.4961 46.6063 11.221 46.7064 10.9548H43.3304C43.2458 11.228 43.1684 11.5033 43.0984 11.7805Z"
        fill="#4C4C4C"
      />
      <path
        fillRule="evenodd"
        clipRule="evenodd"
        d="M42.9052 12.6265H46.2031C46.2707 12.3359 46.3448 12.0538 46.4266 11.7806H43.0984C43.0269 12.0609 42.9624 12.3429 42.9052 12.6265ZM42.7573 13.4723H46.0332C46.0825 13.1821 46.1391 12.9004 46.2031 12.6265H42.9052C42.8497 12.9031 42.8004 13.1852 42.7573 13.4723Z"
        fill="#4C4C4C"
      />
      <path
        fillRule="evenodd"
        clipRule="evenodd"
        d="M42.6512 14.318H45.9143C45.9468 14.0286 45.9872 13.7465 46.0334 13.4722H42.7575C42.7155 13.7533 42.6801 14.0353 42.6512 14.318ZM42.581 15.1638H45.8417C45.8592 14.8752 45.8832 14.5931 45.9146 14.318H42.6516C42.6219 14.5994 42.5983 14.8814 42.581 15.1638ZM42.5522 15.9895H45.8114C45.8153 15.7086 45.825 15.4331 45.8417 15.1642H42.581C42.5658 15.4391 42.5562 15.7142 42.5522 15.9895Z"
        fill="#4C4C4C"
      />
      <path
        fillRule="evenodd"
        clipRule="evenodd"
        d="M42.5542 16.8352H45.8204C45.8124 16.6339 45.8084 16.4325 45.8084 16.2311C45.8084 16.15 45.8099 16.0701 45.8115 15.9894H42.5523C42.5507 16.1031 42.5476 16.2167 42.5476 16.332C42.5476 16.5019 42.5507 16.6695 42.5542 16.8352ZM50.5493 16.8352H53.81V16.332H50.5493V16.8352Z"
        fill="#4C4C4C"
      />
      <path
        fillRule="evenodd"
        clipRule="evenodd"
        d="M42.5975 17.6819H45.8796C45.852 17.4003 45.8323 17.118 45.8206 16.8353H42.5544C42.5626 17.1224 42.5769 17.4045 42.5975 17.6819ZM50.5492 17.6819H53.8099V16.8353H50.5492V17.6819Z"
        fill="#4C4C4C"
      />
      <path
        fillRule="evenodd"
        clipRule="evenodd"
        d="M42.6764 18.528H45.9895C45.9442 18.2472 45.9076 17.9651 45.8797 17.6821H42.5977C42.6178 17.9685 42.6438 18.2513 42.6764 18.528ZM50.5493 18.528H53.81V17.6821H50.5493V18.528Z"
        fill="#4C4C4C"
      />
      <path
        fillRule="evenodd"
        clipRule="evenodd"
        d="M42.8012 19.3733H46.1531C46.0897 19.0931 46.0351 18.8111 45.9894 18.5275H42.6763C42.7112 18.815 42.7535 19.0967 42.8012 19.3733ZM50.5491 19.3733H53.8099V18.5275H50.5491V19.3733Z"
        fill="#4C4C4C"
      />
      <path
        fillRule="evenodd"
        clipRule="evenodd"
        d="M42.9704 20.2189H46.3759C46.2924 19.9395 46.2181 19.6574 46.1532 19.373H42.8013C42.8513 19.6609 42.9076 19.943 42.9704 20.2189ZM50.5492 20.2189H53.81V19.373H50.5492V20.2189Z"
        fill="#4C4C4C"
      />
      <path
        fillRule="evenodd"
        clipRule="evenodd"
        d="M43.1804 21.0443H46.6533C46.5514 20.7725 46.4589 20.4972 46.3759 20.219H42.9705C43.0341 20.5003 43.1035 20.7754 43.1804 21.0443ZM50.5492 21.0443H53.81V20.219H50.5492V21.0443ZM43.4461 21.8909H47.0056C46.8783 21.6129 46.7608 21.3305 46.6533 21.0443H43.1804C43.2622 21.3329 43.3507 21.6158 43.4461 21.8909ZM50.5492 21.8909H53.81V21.0443H50.5492V21.8909Z"
        fill="#4C4C4C"
      />
      <path
        fillRule="evenodd"
        clipRule="evenodd"
        d="M43.7682 22.7365H47.4336C47.2803 22.46 47.1375 22.1778 47.0053 21.8906H43.4458C43.5471 22.1797 43.6545 22.4614 43.7682 22.7365ZM50.5493 22.7365H53.81V21.8906H50.5493V22.7365Z"
        fill="#4C4C4C"
      />
      <path
        fillRule="evenodd"
        clipRule="evenodd"
        d="M44.1511 23.5823H47.9477C47.7655 23.3071 47.5942 23.025 47.434 22.7365H43.7686C43.8888 23.0259 44.0169 23.308 44.1511 23.5823ZM50.5492 23.5823H53.81V22.7365H50.5492V23.5823Z"
        fill="#4C4C4C"
      />
      <path
        fillRule="evenodd"
        clipRule="evenodd"
        d="M44.5989 24.428H48.5615C48.345 24.1549 48.1402 23.8727 47.9477 23.5822H44.1511C44.2935 23.8732 44.4437 24.1545 44.5989 24.428ZM50.5492 24.428H53.81V23.5822H50.5492V24.428Z"
        fill="#4C4C4C"
      />
      <path
        fillRule="evenodd"
        clipRule="evenodd"
        d="M45.1052 25.2534H49.2778C49.0266 24.9893 48.7876 24.7139 48.5615 24.4281H44.5989C44.7585 24.7087 44.9274 24.984 45.1052 25.2534ZM50.5492 25.2534H53.81V24.4281H50.5492V25.2534Z"
        fill="#4C4C4C"
      />
      <path
        fillRule="evenodd"
        clipRule="evenodd"
        d="M45.7031 26.0993H50.1818C49.8639 25.8353 49.562 25.5526 49.2778 25.2527H45.1052C45.2951 25.5414 45.4945 25.8238 45.7031 26.0993ZM50.5492 26.0993H53.81V25.2527H50.5492V26.0993Z"
        fill="#4C4C4C"
      />
      <path
        fillRule="evenodd"
        clipRule="evenodd"
        d="M46.3903 26.9454H53.81V26.0996H50.5492V26.3817C50.5492 26.3817 50.4115 26.2886 50.1818 26.0996H45.7031C45.9225 26.3892 46.1517 26.6713 46.3903 26.9454Z"
        fill="#4C4C4C"
      />
      <path
        fillRule="evenodd"
        clipRule="evenodd"
        d="M47.1805 27.791H53.8098V26.9452H46.3901C46.6485 27.2424 46.9132 27.5233 47.1805 27.791Z"
        fill="#4C4C4C"
      />
      <path
        fillRule="evenodd"
        clipRule="evenodd"
        d="M48.0925 28.6367H53.81V27.7909H47.1807C47.4745 28.0835 47.7786 28.3657 48.0925 28.6367Z"
        fill="#4C4C4C"
      />
      <path
        fillRule="evenodd"
        clipRule="evenodd"
        d="M49.1489 29.4827H53.8103V28.6368H48.0928C48.434 28.932 48.7863 29.2141 49.1489 29.4827ZM50.3567 30.3087H53.8099V29.4827H49.1485C49.5406 29.7733 49.9436 30.0489 50.3567 30.3087ZM51.8467 31.1546H53.8103V30.3087H50.3571C50.8926 30.6443 51.397 30.9256 51.8467 31.1546Z"
        fill="#4C4C4C"
      />
      <path
        fillRule="evenodd"
        clipRule="evenodd"
        d="M53.8101 32.0001V31.1543H51.8464C53.0151 31.7495 53.8101 32.0001 53.8101 32.0001Z"
        fill="#4C4C4C"
      />
      <path
        fillRule="evenodd"
        clipRule="evenodd"
        d="M59.3518 17.1579H61.7322V16.9965H59.3518V17.1579ZM64.5134 17.1579H66.9938V16.9965H64.5134V17.1579ZM59.3518 17.7414H61.7322V17.1579H59.3518V17.7414ZM64.5134 17.7414H66.9938V17.1579H64.5134V17.7414Z"
        fill="#4C4C4C"
      />
      <path
        fillRule="evenodd"
        clipRule="evenodd"
        d="M59.3518 18.3261H61.7322V17.7418H59.3518V18.3261ZM64.5134 18.3261H66.9938V17.7418H64.5134V18.3261Z"
        fill="#4C4C4C"
      />
      <path
        fillRule="evenodd"
        clipRule="evenodd"
        d="M59.3518 18.9095H61.7322V18.3259H59.3518V18.9095ZM64.5134 18.9095H66.9938V18.3259H64.5134V18.9095ZM59.3518 19.4938H61.7322V18.9095H59.3518V19.4938ZM64.5134 19.4938H66.9938V18.9095H64.5134V19.4938Z"
        fill="#4C4C4C"
      />
      <path
        fillRule="evenodd"
        clipRule="evenodd"
        d="M59.3518 20.0783H61.7322V19.494H59.3518V20.0783ZM64.5134 20.0783H66.9938V19.494H64.5134V20.0783ZM59.3518 20.6627H61.7322V20.0783H59.3518V20.6627ZM64.5134 20.6627H66.9938V20.0783H64.5134V20.6627Z"
        fill="#4C4C4C"
      />
      <path
        fillRule="evenodd"
        clipRule="evenodd"
        d="M59.3518 21.2457H61.7322V20.6621H59.3518V21.2457ZM64.5134 21.2457H66.9938V20.6621H64.5134V21.2457ZM59.3518 21.8498H61.7322V21.2457H59.3518V21.8498ZM64.5134 21.8498H66.9938V21.2457H64.5134V21.8498ZM59.3518 22.4341H61.7322V21.8498H59.3518V22.4341ZM64.5134 22.4341H66.9938V21.8498H64.5134V22.4341Z"
        fill="#4C4C4C"
      />
      <path
        fillRule="evenodd"
        clipRule="evenodd"
        d="M59.4104 23.0183H61.993C61.7815 22.7242 61.7322 22.434 61.7322 22.434H59.3518C59.3518 22.434 59.3484 22.6695 59.4104 23.0183ZM64.4075 23.0183H66.9523C66.9811 22.8243 66.9911 22.6652 66.9939 22.5628V22.434H64.5134C64.5134 22.434 64.5421 22.7242 64.4075 23.0183ZM59.5606 23.6018H62.9843C62.4818 23.5297 62.1765 23.2728 61.993 23.0183H59.4104C59.4415 23.1902 59.4884 23.3896 59.5606 23.6018ZM63.5609 23.6018H66.8193C66.8852 23.3896 66.926 23.1902 66.952 23.0183H64.4071C64.2907 23.2728 64.0505 23.5297 63.5609 23.6018Z"
        fill="#4C4C4C"
      />
      <path
        fillRule="evenodd"
        clipRule="evenodd"
        d="M59.8143 24.1865H66.5837C66.6854 23.9886 66.7618 23.7904 66.8192 23.6022H63.5608C63.3696 23.63 63.1754 23.63 62.9842 23.6022H59.5605C59.6242 23.79 59.7064 23.9886 59.8143 24.1865Z"
        fill="#4C4C4C"
      />
      <path
        fillRule="evenodd"
        clipRule="evenodd"
        d="M60.2204 24.7705H66.1964C66.347 24.5909 66.4769 24.3948 66.5836 24.1862H59.8142C59.9277 24.3953 60.0639 24.5913 60.2204 24.7705ZM60.9053 25.354H65.531C65.7808 25.194 66.0051 24.9973 66.1964 24.7705H60.2204C60.419 24.9974 60.6497 25.194 60.9053 25.354Z"
        fill="#4C4C4C"
      />
      <path
        fillRule="evenodd"
        clipRule="evenodd"
        d="M65.531 25.3536H60.9053C61.4601 25.7021 62.2117 25.938 63.2325 25.938C64.2483 25.938 64.9901 25.7024 65.531 25.3536Z"
        fill="#4C4C4C"
      />
      <path
        fillRule="evenodd"
        clipRule="evenodd"
        d="M60.8932 4.26961H65.4696C64.9155 3.92041 64.1609 3.68567 63.1327 3.68567C62.1549 3.68528 61.4305 3.92041 60.8932 4.26961ZM60.2285 4.85355H66.1509C65.954 4.62622 65.7244 4.42943 65.4696 4.26961H60.8932C60.6443 4.43079 60.4204 4.62752 60.2285 4.85355Z"
        fill="#4C4C4C"
      />
      <path
        fillRule="evenodd"
        clipRule="evenodd"
        d="M59.8308 5.43733H66.5494C66.4385 5.22863 66.3048 5.0328 66.1509 4.85339H60.2285C60.0756 5.03333 59.9422 5.22908 59.8308 5.43733ZM59.5775 6.02127H66.7962C66.7312 5.81971 66.6485 5.6243 66.549 5.43733H59.8305C59.7303 5.62475 59.6457 5.82005 59.5775 6.02127ZM59.4238 6.60559H61.9489C62.1348 6.33361 62.477 6.0818 63.1121 6.0818C63.7578 6.0818 64.1058 6.33322 64.2928 6.60559H66.9398C66.9068 6.40763 66.8589 6.21243 66.7966 6.02166H59.5779C59.513 6.21249 59.4616 6.40761 59.4238 6.60559Z"
        fill="#4C4C4C"
      />
      <path
        fillRule="evenodd"
        clipRule="evenodd"
        d="M59.3535 7.18931H61.7377C61.7606 6.98057 61.8331 6.78034 61.9492 6.60537H59.4241C59.3733 6.87115 59.3581 7.08105 59.3535 7.18931ZM64.5077 7.18931H66.9939V7.14314C66.9882 6.96273 66.9702 6.78293 66.94 6.60498H64.2931C64.4483 6.82963 64.4937 7.06825 64.5077 7.18931ZM59.3519 7.79342H61.7323V7.26962C61.7323 7.26962 61.7323 7.23936 61.7377 7.18931H59.3535C59.3512 7.24091 59.3519 7.26962 59.3519 7.26962V7.79342ZM64.5135 7.79342H66.9939V7.18931H64.5077C64.5139 7.23936 64.5139 7.26962 64.5139 7.26962V7.79342H64.5135Z"
        fill="#4C4C4C"
      />
      <path
        fillRule="evenodd"
        clipRule="evenodd"
        d="M59.3518 8.37778H61.7322V7.79346H59.3518V8.37778ZM64.5134 8.37778H66.9938V7.79346H64.5134V8.37778ZM59.3518 8.96172H61.7322V8.37778H59.3518V8.96172ZM64.5134 8.96172H66.9938V8.37778H64.5134V8.96172Z"
        fill="#4C4C4C"
      />
      <path
        fillRule="evenodd"
        clipRule="evenodd"
        d="M59.3518 9.54548H61.7322V8.96155H59.3518V9.54548ZM64.5134 9.54548H66.9938V8.96155H64.5134V9.54548ZM59.3518 10.1298H61.7322V9.54588H59.3518V10.1298ZM64.5134 10.1298H66.9938V9.54588H64.5134V10.1298Z"
        fill="#4C4C4C"
      />
      <path
        fillRule="evenodd"
        clipRule="evenodd"
        d="M59.3518 10.7139H61.7322V10.13H59.3518V10.7139ZM64.5134 10.7139H66.9938V10.13H64.5134V10.7139ZM59.3518 11.2979H61.7322V10.7139H59.3518V11.2979ZM64.5134 11.2979H66.9938V10.7139H64.5134V11.2979ZM59.3518 11.8818H61.7322V11.2979H59.3518V11.8818ZM64.5134 11.8818H66.9938V11.2979H64.5134V11.8818Z"
        fill="#4C4C4C"
      />
      <path
        fillRule="evenodd"
        clipRule="evenodd"
        d="M59.3518 12.4655H61.7322V11.8816H59.3518V12.4655ZM64.5134 12.4655H66.9938V11.8816H64.5134V12.4655Z"
        fill="#4C4C4C"
      />
      <path
        fillRule="evenodd"
        clipRule="evenodd"
        d="M59.3518 13.0497H61.7322V12.4653H59.3518V13.0497ZM64.5134 13.0497H66.9938V12.4653H64.5134V13.0497Z"
        fill="#4C4C4C"
      />
      <path
        fillRule="evenodd"
        clipRule="evenodd"
        d="M59.3518 13.6336H61.7322V13.0497H59.3518V13.6336ZM64.5134 13.6336H66.9938V13.0497H64.5134V13.6336ZM59.3518 14.2179H61.7322V13.634H59.3518V14.2179ZM64.5134 14.2179H66.9938V13.634H64.5134V14.2179ZM59.3518 14.8221H61.7322V14.2179H59.3518V14.8221ZM64.5134 14.8221H66.9938V14.2179H64.5134V14.8221Z"
        fill="#4C4C4C"
      />
      <path
        fillRule="evenodd"
        clipRule="evenodd"
        d="M59.3518 15.4057H61.7322V14.8218H59.3518V15.4057ZM64.5134 15.4057H66.9938V14.8218H64.5134V15.4057ZM59.3518 15.9897H61.7322V15.4057H59.3518V15.9897ZM64.5134 15.9897H66.9938V15.4057H64.5134V15.9897Z"
        fill="#4C4C4C"
      />
      <path
        fillRule="evenodd"
        clipRule="evenodd"
        d="M59.3518 16.5737H61.7322V15.9894H59.3518V16.5737ZM64.5134 16.5737H66.9938V15.9894H64.5134V16.5737ZM66.9938 16.9966V16.5737H64.5134V16.9966H66.9938ZM61.7322 16.5737H59.3518V16.9966H61.7322V16.5737Z"
        fill="#4C4C4C"
      />
      <path
        fillRule="evenodd"
        clipRule="evenodd"
        d="M19.4388 4.43049H24.0509C23.5101 4.08246 22.7663 3.84656 21.7423 3.84656C20.7231 3.84656 19.9804 4.08246 19.4388 4.43049ZM18.7722 5.01443H24.7136C24.5237 4.7871 24.3001 4.59018 24.0505 4.43049H19.4388C19.1885 4.59047 18.9637 4.78734 18.7722 5.01443Z"
        fill="#4C4C4C"
      />
      <path
        fillRule="evenodd"
        clipRule="evenodd"
        d="M18.3958 5.57877H25.0856C24.9828 5.37776 24.8582 5.1887 24.7139 5.01501H18.7721C18.6265 5.18866 18.5003 5.3777 18.3958 5.57877Z"
        fill="#4C4C4C"
      />
      <path
        fillRule="evenodd"
        clipRule="evenodd"
        d="M18.1555 6.16206H25.3203C25.2598 5.96074 25.1812 5.76529 25.0855 5.57812H18.3957C18.2985 5.76531 18.2182 5.96072 18.1555 6.16206ZM18.0212 6.74639H20.6538C20.835 6.50156 21.1687 6.26294 21.7821 6.26294C22.4149 6.26294 22.7498 6.50156 22.9259 6.74639H25.4487C25.4212 6.54871 25.3784 6.35348 25.3207 6.16245H18.1555C18.0884 6.37702 18.0468 6.57683 18.0212 6.74639Z"
        fill="#4C4C4C"
      />
      <path
        fillRule="evenodd"
        clipRule="evenodd"
        d="M17.9811 7.31035H20.4418V7.26999C20.4418 7.26999 20.4632 7.0046 20.654 6.74658H18.0215C17.9738 7.06125 17.9811 7.26999 17.9811 7.26999V7.31035ZM23.1225 7.31035H25.4831V7.14428C25.479 7.01117 25.4675 6.87839 25.4485 6.74658H22.9258C23.112 7.0046 23.1225 7.26999 23.1225 7.26999V7.31035ZM17.9811 7.89428H20.4418V7.31035H17.9811V7.89428ZM23.1225 7.89428H25.4831V7.31035H23.1225V7.89428Z"
        fill="#4C4C4C"
      />
      <path
        fillRule="evenodd"
        clipRule="evenodd"
        d="M17.981 8.47896H20.4416V7.89502H17.981V8.47896ZM23.1223 8.47896H25.4829V7.89502H23.1223V8.47896ZM17.981 9.04272H20.4416V8.47896H17.981V9.04272ZM23.1223 9.04272H25.4829V8.47896H23.1223V9.04272Z"
        fill="#4C4C4C"
      />
      <path
        fillRule="evenodd"
        clipRule="evenodd"
        d="M17.981 9.62605H20.4416V9.04211H17.981V9.62605ZM23.1223 9.62605H25.4829V9.04211H23.1223V9.62605ZM17.981 10.1898H20.4416V9.62605H17.981V10.1898ZM23.1223 10.1898H25.4829V9.62605H23.1223V10.1898Z"
        fill="#4C4C4C"
      />
      <path
        fillRule="evenodd"
        clipRule="evenodd"
        d="M17.981 10.7743H20.4416V10.1899H17.981V10.7743ZM23.1223 10.7743H25.4829V10.1899H23.1223V10.7743ZM17.981 11.3582H20.4416V10.7743H17.981V11.3582ZM23.1223 11.3582H25.4829V10.7743H23.1223V11.3582Z"
        fill="#4C4C4C"
      />
      <path
        fillRule="evenodd"
        clipRule="evenodd"
        d="M17.981 11.9219H20.4416V11.3582H17.981V11.9219ZM23.1223 11.9219H25.4829V11.3582H23.1223V11.9219Z"
        fill="#4C4C4C"
      />
      <path
        fillRule="evenodd"
        clipRule="evenodd"
        d="M17.981 12.5062H20.4416V11.9219H17.981V12.5062ZM23.1223 12.5062H25.4829V11.9219H23.1223V12.5062Z"
        fill="#4C4C4C"
      />
      <path
        fillRule="evenodd"
        clipRule="evenodd"
        d="M17.981 13.0898H20.4416V12.5059H17.981V13.0898ZM23.1223 13.0898H25.4829V12.5059H23.1223V13.0898Z"
        fill="#4C4C4C"
      />
      <path
        fillRule="evenodd"
        clipRule="evenodd"
        d="M17.981 13.6537H20.4416V13.09H17.981V13.6537ZM23.1223 13.6537H25.4829V13.09H23.1223V13.6537ZM17.981 14.2377H20.4416V13.6537H17.981V14.2377ZM23.1223 14.2377H25.4829V13.6537H23.1223V14.2377ZM17.981 14.822H20.4416V14.2381H17.981V14.822ZM23.1223 14.822H25.4829V14.2381H23.1223V14.822Z"
        fill="#4C4C4C"
      />
      <path
        fillRule="evenodd"
        clipRule="evenodd"
        d="M17.981 15.3855H20.4416V14.8218H17.981V15.3855ZM23.1223 15.3855H25.4829V14.8218H23.1223V15.3855ZM17.981 15.9695H20.4416V15.3855H17.981V15.9695ZM23.1223 15.9695H25.4829V15.3855H23.1223V15.9695Z"
        fill="#4C4C4C"
      />
      <path
        fillRule="evenodd"
        clipRule="evenodd"
        d="M17.981 16.5535H20.4416V15.9696H17.981V16.5535ZM23.1223 16.5535H25.4829V15.9696H23.1223V16.5535Z"
        fill="#4C4C4C"
      />
      <path
        fillRule="evenodd"
        clipRule="evenodd"
        d="M17.981 17.1171H20.4416V16.5533H17.981V17.1171ZM23.1223 17.1171H25.4829V16.5533H23.1223V17.1171ZM17.981 17.7014H20.4416V17.1171H17.981V17.7014ZM23.1223 17.7014H25.4829V17.1171H23.1223V17.7014Z"
        fill="#4C4C4C"
      />
      <path
        fillRule="evenodd"
        clipRule="evenodd"
        d="M17.9811 18.2653H20.4418V17.7015H17.9811V18.2653ZM23.1225 18.2653H25.4831V17.7015H23.1225V18.2653ZM17.9811 18.8496H20.4418V18.2653H17.9811V18.8496ZM23.1225 18.8496H25.4831V18.2653H23.1225V18.8496ZM14.8872 19.4332H25.4831V18.8496H23.1225V18.9905H20.4418V18.8496H17.9811V18.9905H14.6001L14.8872 19.4332Z"
        fill="#4C4C4C"
      />
      <path
        fillRule="evenodd"
        clipRule="evenodd"
        d="M15.2531 19.9979H25.4831V19.4333H14.8872L15.2531 19.9979ZM15.6314 20.5814H25.4831V19.9979H15.2531L15.6314 20.5814Z"
        fill="#4C4C4C"
      />
      <path
        fillRule="evenodd"
        clipRule="evenodd"
        d="M16.01 21.1655H25.483V20.5815H15.6313L16.01 21.1655ZM18.0812 21.7296H20.4018V21.4072H23.1826V21.7296H25.483V21.1655H16.01L16.1408 21.3672H18.0812V21.7296Z"
        fill="#4C4C4C"
      />
      <path
        fillRule="evenodd"
        clipRule="evenodd"
        d="M18.0811 22.3137H20.4017V21.7294H18.0811V22.3137ZM23.1825 22.3137H25.4829V21.7294H23.1825V22.3137Z"
        fill="#4C4C4C"
      />
      <path
        fillRule="evenodd"
        clipRule="evenodd"
        d="M18.0811 22.8969H20.4017V22.3134H18.0811V22.8969ZM23.1825 22.8969H25.4829V22.3134H23.1825V22.8969ZM18.0811 23.4607H20.4017V22.8969H18.0811V23.4607ZM23.1825 23.4607H25.4829V22.8969H23.1825V23.4607Z"
        fill="#4C4C4C"
      />
      <path
        fillRule="evenodd"
        clipRule="evenodd"
        d="M18.0811 24.0453H20.4017V23.4609H18.0811V24.0453ZM23.1825 24.0453H25.4829V23.4609H23.1825V24.0453ZM18.0811 24.6296H20.4017V24.0453H18.0811V24.6296ZM23.1825 24.6296H25.4829V24.0453H23.1825V24.6296ZM18.0811 25.1933H20.4017V24.6296H18.0811V25.1933ZM23.1825 25.1933H25.4829V24.6296H23.1825V25.1933Z"
        fill="#4C4C4C"
      />
      <path
        fillRule="evenodd"
        clipRule="evenodd"
        d="M18.0811 25.7767H20.4017V25.1931H18.0811V25.7767ZM23.1825 25.7767H25.4829V25.1931H23.1825V25.7767Z"
        fill="#4C4C4C"
      />
    </svg>
