
    <svg
      xmlns="http://www.w3.org/2000/svg"
      width="82"
      height="32"
      viewBox="0 0 82 32"
      fill="none"
    >
      <path
        fillRule="evenodd"
        clipRule="evenodd"
        d="M8.00036 8.70367C8.61529 8.17652 9.40674 7.9127 10.1099 7.9127C11.429 7.9127 12.7476 8.52812 14.0662 9.5829L14.6816 10.1105L16.4396 7.64889L15.9998 7.20903C14.3296 5.80265 12.5716 5.09898 10.5493 5.09898C9.05467 5.09898 7.64828 5.62661 6.2419 6.50584C4.83552 7.47285 3.95629 8.70319 3.69247 10.1978C3.34088 11.7803 3.69247 13.1866 4.83552 14.2414C5.53871 14.9451 6.68176 15.5605 8.35196 16.2632C9.58278 16.7909 10.3738 17.2302 10.7253 17.5823C11.1652 18.1099 11.3408 18.8122 11.1652 19.6919C10.9892 20.5706 10.5498 21.2743 9.75834 21.7137C9.05515 22.2413 8.2637 22.4173 7.47273 22.4173C5.62649 22.4173 4.04455 21.6259 2.63721 19.8674L2.19783 19.253L0 21.6259L0.439854 22.0653C1.14305 22.945 2.10957 23.6486 3.3404 24.2631C4.65948 24.8785 5.88983 25.2311 7.12065 25.2311C8.70307 25.2311 10.1095 24.7907 11.4281 23.8237C12.9222 22.8567 13.8897 21.5376 14.1535 19.8674C14.5929 18.1099 14.1535 16.7026 13.0105 15.5605C12.3951 14.9451 11.1642 14.2414 9.40578 13.5382H9.318C7.29621 12.659 6.41698 11.692 6.59254 10.6372C6.76954 9.84624 7.20939 9.14305 8.00036 8.70367ZM26.198 0.00012207H23.2092L21.9783 5.53835H17.9347L17.3193 8.26382H21.3634L19.1656 18.7253C18.6379 21.0983 18.814 22.8567 19.781 23.9115C20.3964 24.7903 21.5394 25.2306 23.0341 25.2306C25.7591 25.2306 28.1329 23.7355 30.2425 20.7467L30.8579 19.867L27.8691 19.1642L27.6053 19.6036C26.2862 21.4494 24.8803 22.4169 23.3857 22.4169C22.7703 22.4169 22.3304 22.3286 22.0666 21.9775C21.8028 21.6254 21.715 20.9217 21.9783 19.9547L24.44 8.26286H30.9457L31.5611 5.5374H24.9671L26.198 0.00012207ZM46.5934 7.03347C45.5386 5.71439 44.1313 5.09898 42.286 5.09898C39.6483 5.09898 37.3627 6.24154 35.5164 8.35208C33.934 10.1983 32.8792 12.4839 32.3516 15.1211C31.4724 18.6376 31.9117 21.2748 33.4064 23.2083C34.549 24.5274 36.1319 25.2311 38.2414 25.2311C40.0877 25.2311 42.4606 24.7025 45.186 23.5609L45.8015 23.2966L45.0978 20.3082L44.3073 20.7476C42.1977 21.8907 40.2632 22.4178 38.593 22.4178C37.3622 22.4178 36.4834 22.0657 35.9558 21.4499C35.0766 20.4828 34.8128 18.7254 35.1644 16.1754H47.3839L47.5599 15.5605C48.3509 11.6925 47.9993 8.79145 46.5934 7.03347ZM41.8452 7.91222C42.8131 7.91222 43.6036 8.26382 44.219 9.05527C45.0105 10.1105 45.2738 11.5169 44.9227 13.3627H35.7798C36.2196 11.868 37.0106 10.6372 38.0659 9.58242C39.2967 8.52764 40.527 7.91222 41.8452 7.91222ZM59.2518 5.09898C57.4943 5.09898 55.9109 5.71439 54.5928 6.94522V5.01168L51.6035 5.45106V6.15472C51.7795 7.9127 51.6035 10.0228 51.0759 12.3084L46.8562 32.0001H49.9338L51.603 24.2636C52.6974 24.9007 53.9418 25.2349 55.2082 25.2315C57.054 25.2315 58.9002 24.4401 60.5709 23.0337C62.7687 21.187 64.1751 18.7263 64.8783 15.4732C65.6688 11.869 65.3177 9.14401 63.7352 7.20951C62.5927 5.80265 61.0985 5.09898 59.2518 5.09898ZM54.329 11.0771C55.8241 8.96749 57.3182 7.91222 58.9007 7.91222C59.8677 7.91222 60.6591 8.35208 61.2736 9.05527C62.3284 10.2861 62.4166 12.3079 61.889 15.0329C61.2736 18.1099 60.0432 20.2195 58.1087 21.4499C57.1417 22.0653 56.0869 22.4178 55.0322 22.4178C54.0652 22.4178 53.0986 21.9785 52.2189 21.0987L54.329 11.0771ZM74.5488 13.5387C72.4393 12.6595 71.4713 11.6925 71.7356 10.6377C71.9116 9.84672 72.351 9.14353 73.0537 8.70367C73.7574 8.17652 74.4611 7.9127 75.2515 7.9127C76.5706 7.9127 77.8888 8.52812 79.2078 9.5829L79.8232 10.1105L81.5817 7.64889L81.1423 7.20903C79.4721 5.80265 77.6254 5.09898 75.6919 5.09898C74.1968 5.09898 72.7904 5.62661 71.3835 6.50584C69.9771 7.47285 69.0984 8.70319 68.8346 10.1978C68.4835 11.7803 68.8346 13.1866 70.0654 14.2414C70.6808 14.8568 71.8239 15.5605 73.4941 16.2632L75.867 17.5823C76.3063 18.1099 76.4824 18.8122 76.3063 19.6919C76.1313 20.5706 75.6036 21.2743 74.9 21.7137C74.1963 22.2413 73.4058 22.4173 72.6139 22.4173C70.7681 22.4173 69.1862 21.6259 67.8671 19.8674L67.3394 19.253L65.2299 21.6259L65.581 22.0653C66.2847 22.945 67.2512 23.6486 68.4825 24.2631C69.7133 24.8785 71.0314 25.2311 72.2627 25.2311C73.8452 25.2311 75.2511 24.7907 76.5702 23.8237C78.0643 22.8567 79.0313 21.5376 79.2956 19.8674C79.735 18.1099 79.2956 16.7026 78.2408 15.5605C77.5372 14.9456 76.3063 14.2419 74.5488 13.5387Z"
        fill="#FFAAAF"
      />
    </svg>
 
