<svg width="19" height="18" viewBox="0 0 19 18" fill="none" xmlns="http://www.w3.org/2000/svg">
<path d="M13.8249 6C13.8249 4.80653 13.3487 3.66193 12.5009 2.81802C11.6531 1.97411 10.5033 1.5 9.30433 1.5C8.10539 1.5 6.95556 1.97411 6.10779 2.81802C5.26001 3.66193 4.78374 4.80653 4.78374 6C4.78374 11.25 2.52344 12.75 2.52344 12.75H16.0852C16.0852 12.75 13.8249 11.25 13.8249 6Z" stroke="#4C4C4C" strokeWidth="2" strokeLinecap="round" strokeLinejoin="round"/>
<path d="M10.6079 15.75C10.4754 15.9773 10.2853 16.166 10.0565 16.2971C9.82776 16.4283 9.5684 16.4973 9.30441 16.4973C9.04043 16.4973 8.78107 16.4283 8.55232 16.2971C8.32356 16.166 8.13344 15.9773 8.00098 15.75" stroke="#4C4C4C" strokeWidth="2" strokeLinecap="round" strokeLinejoin="round"/>
</svg>
