<svg width="531" height="174" viewBox="0 0 531 174" fill="none" xmlns="http://www.w3.org/2000/svg">
<path d="M218.64 86.632C222.416 87.336 225.52 89.224 227.952 92.296C230.384 95.368 231.6 98.888 231.6 102.856C231.6 106.44 230.704 109.608 228.912 112.36C227.184 115.048 224.656 117.16 221.328 118.696C218 120.232 214.064 121 209.52 121H180.624V53.992H208.272C212.816 53.992 216.72 54.728 219.984 56.2C223.312 57.672 225.808 59.72 227.472 62.344C229.2 64.968 230.064 67.944 230.064 71.272C230.064 75.176 229.008 78.44 226.896 81.064C224.848 83.688 222.096 85.544 218.64 86.632ZM194.064 81.64H206.352C209.552 81.64 212.016 80.936 213.744 79.528C215.472 78.056 216.336 75.976 216.336 73.288C216.336 70.6 215.472 68.52 213.744 67.048C212.016 65.576 209.552 64.84 206.352 64.84H194.064V81.64ZM207.6 110.056C210.864 110.056 213.392 109.288 215.184 107.752C217.04 106.216 217.968 104.04 217.968 101.224C217.968 98.344 217.008 96.104 215.088 94.504C213.168 92.84 210.576 92.008 207.312 92.008H194.064V110.056H207.6ZM289.639 67.816V121H276.104V114.28C274.376 116.584 272.104 118.408 269.288 119.752C266.536 121.032 263.528 121.672 260.264 121.672C256.104 121.672 252.424 120.808 249.223 119.08C246.023 117.288 243.495 114.696 241.639 111.304C239.847 107.848 238.951 103.752 238.951 99.016V67.816H252.391V97.096C252.391 101.32 253.448 104.584 255.56 106.888C257.672 109.128 260.552 110.248 264.2 110.248C267.912 110.248 270.824 109.128 272.936 106.888C275.048 104.584 276.104 101.32 276.104 97.096V67.816H289.639ZM350.9 67.816L317.972 146.152H303.668L315.188 119.656L293.876 67.816H308.948L322.676 104.968L336.596 67.816H350.9ZM367.553 109.96H391.265V121H352.289V110.152L375.521 78.856H352.385V67.816H390.977V78.664L367.553 109.96ZM411.079 109.96H434.791V121H395.815V110.152L419.047 78.856H395.911V67.816H434.503V78.664L411.079 109.96ZM455.758 49.96V121H442.318V49.96H455.758ZM515.597 93.256C515.597 95.176 515.469 96.904 515.213 98.44H476.333C476.653 102.28 477.997 105.288 480.365 107.464C482.733 109.64 485.645 110.728 489.101 110.728C494.093 110.728 497.645 108.584 499.757 104.296H514.253C512.717 109.416 509.773 113.64 505.421 116.968C501.069 120.232 495.725 121.864 489.389 121.864C484.269 121.864 479.661 120.744 475.565 118.504C471.533 116.2 468.365 112.968 466.061 108.808C463.821 104.648 462.701 99.848 462.701 94.408C462.701 88.904 463.821 84.072 466.061 79.912C468.301 75.752 471.437 72.552 475.469 70.312C479.501 68.072 484.141 66.952 489.389 66.952C494.445 66.952 498.957 68.04 502.925 70.216C506.957 72.392 510.061 75.496 512.237 79.528C514.477 83.496 515.597 88.072 515.597 93.256ZM501.677 89.416C501.613 85.96 500.365 83.208 497.933 81.16C495.501 79.048 492.525 77.992 489.005 77.992C485.677 77.992 482.861 79.016 480.557 81.064C478.317 83.048 476.941 85.832 476.429 89.416H501.677Z" fill="#1A1A1A"/>
<path d="M152.25 116V58C152.247 55.4573 151.576 52.9599 150.304 50.7585C149.031 48.557 147.202 46.7289 145 45.4575L94.25 16.4575C92.0457 15.1849 89.5453 14.5149 87 14.5149C84.4547 14.5149 81.9543 15.1849 79.75 16.4575L29 45.4575C26.7979 46.7289 24.9689 48.557 23.6963 50.7585C22.4238 52.9599 21.7526 55.4573 21.75 58V116C21.7526 118.543 22.4238 121.04 23.6963 123.242C24.9689 125.443 26.7979 127.271 29 128.543L79.75 157.543C81.9543 158.815 84.4547 159.485 87 159.485C89.5453 159.485 92.0457 158.815 94.25 157.543L145 128.543C147.202 127.271 149.031 125.443 150.304 123.242C151.576 121.04 152.247 118.543 152.25 116Z" stroke="#1A1A1A" strokeWidth="12" strokeLinecap="round" strokeLinejoin="round"/>
<path d="M54.375 30.5225L87 49.3725L119.625 30.5225" stroke="#1A1A1A" strokeWidth="12" strokeLinecap="round" strokeLinejoin="round"/>
<path d="M54.375 143.478V105.85L21.75 87" stroke="#1A1A1A" strokeWidth="12" strokeLinecap="round" strokeLinejoin="round"/>
<path d="M152.25 87L119.625 105.85V143.478" stroke="#1A1A1A" strokeWidth="12" strokeLinecap="round" strokeLinejoin="round"/>
<path d="M23.7075 50.46L87 87.0725L150.293 50.46" stroke="#1A1A1A" strokeWidth="12" strokeLinecap="round" strokeLinejoin="round"/>
<path d="M87 160.08V87" stroke="#1A1A1A" strokeWidth="12" strokeLinecap="round" strokeLinejoin="round"/>
<path d="M183.336 37C183.08 37 182.856 36.912 182.664 36.736C182.488 36.544 182.4 36.32 182.4 36.064V19.192C182.4 18.92 182.488 18.696 182.664 18.52C182.856 18.344 183.08 18.256 183.336 18.256C183.72 18.256 184 18.416 184.176 18.736L192.264 34.816H191.448L199.392 18.736C199.584 18.416 199.864 18.256 200.232 18.256C200.488 18.256 200.704 18.344 200.88 18.52C201.056 18.696 201.144 18.92 201.144 19.192V36.064C201.144 36.32 201.056 36.544 200.88 36.736C200.704 36.912 200.488 37 200.232 37C199.96 37 199.728 36.912 199.536 36.736C199.36 36.544 199.272 36.32 199.272 36.064V21.616L199.68 21.64L192.6 36.112C192.424 36.416 192.152 36.568 191.784 36.568C191.384 36.568 191.096 36.376 190.92 35.992L183.792 21.736L184.272 21.616V36.064C184.272 36.32 184.176 36.544 183.984 36.736C183.808 36.912 183.592 37 183.336 37ZM210.707 37.144C209.571 37.144 208.555 36.912 207.659 36.448C206.763 35.968 206.051 35.272 205.523 34.36C205.011 33.448 204.755 32.336 204.755 31.024V24.784C204.755 24.528 204.843 24.312 205.019 24.136C205.195 23.96 205.411 23.872 205.667 23.872C205.939 23.872 206.163 23.96 206.339 24.136C206.515 24.312 206.603 24.528 206.603 24.784V31.024C206.603 32.016 206.787 32.832 207.155 33.472C207.539 34.112 208.051 34.592 208.691 34.912C209.347 35.232 210.083 35.392 210.899 35.392C211.683 35.392 212.387 35.24 213.011 34.936C213.651 34.632 214.155 34.216 214.523 33.688C214.891 33.16 215.075 32.56 215.075 31.888H216.395C216.347 32.896 216.067 33.8 215.555 34.6C215.059 35.384 214.387 36.008 213.539 36.472C212.691 36.92 211.747 37.144 210.707 37.144ZM215.987 37C215.715 37 215.491 36.92 215.315 36.76C215.155 36.584 215.075 36.352 215.075 36.064V24.784C215.075 24.512 215.155 24.296 215.315 24.136C215.491 23.96 215.715 23.872 215.987 23.872C216.259 23.872 216.483 23.96 216.659 24.136C216.835 24.296 216.923 24.512 216.923 24.784V36.064C216.923 36.352 216.835 36.584 216.659 36.76C216.483 36.92 216.259 37 215.987 37ZM226.301 37.12C225.069 37.12 223.965 36.832 222.989 36.256C222.013 35.664 221.237 34.864 220.661 33.856C220.101 32.848 219.821 31.712 219.821 30.448C219.821 29.168 220.109 28.024 220.685 27.016C221.277 26.008 222.077 25.216 223.085 24.64C224.093 24.048 225.229 23.752 226.493 23.752C227.757 23.752 228.885 24.048 229.877 24.64C230.885 25.216 231.677 26.008 232.253 27.016C232.845 28.024 233.149 29.168 233.165 30.448L232.421 31.024C232.421 32.176 232.149 33.216 231.605 34.144C231.077 35.056 230.349 35.784 229.421 36.328C228.509 36.856 227.469 37.12 226.301 37.12ZM226.493 35.44C227.421 35.44 228.245 35.224 228.965 34.792C229.701 34.36 230.277 33.768 230.693 33.016C231.125 32.248 231.341 31.392 231.341 30.448C231.341 29.488 231.125 28.632 230.693 27.88C230.277 27.128 229.701 26.536 228.965 26.104C228.245 25.656 227.421 25.432 226.493 25.432C225.581 25.432 224.757 25.656 224.021 26.104C223.285 26.536 222.701 27.128 222.269 27.88C221.837 28.632 221.621 29.488 221.621 30.448C221.621 31.392 221.837 32.248 222.269 33.016C222.701 33.768 223.285 34.36 224.021 34.792C224.757 35.224 225.581 35.44 226.493 35.44ZM232.229 37C231.957 37 231.733 36.92 231.557 36.76C231.381 36.584 231.293 36.36 231.293 36.088V31.984L231.749 30.088L233.165 30.448V36.088C233.165 36.36 233.077 36.584 232.901 36.76C232.725 36.92 232.501 37 232.229 37ZM246.934 37.12C245.99 37.12 245.054 36.96 244.126 36.64C243.198 36.32 242.446 35.84 241.87 35.2C241.694 35.008 241.622 34.792 241.654 34.552C241.686 34.312 241.806 34.104 242.014 33.928C242.238 33.768 242.47 33.704 242.71 33.736C242.95 33.768 243.15 33.872 243.31 34.048C243.694 34.496 244.198 34.84 244.822 35.08C245.462 35.32 246.166 35.44 246.934 35.44C248.118 35.44 248.974 35.24 249.502 34.84C250.03 34.424 250.302 33.928 250.318 33.352C250.318 32.776 250.046 32.304 249.502 31.936C248.958 31.552 248.062 31.256 246.814 31.048C245.198 30.792 244.014 30.344 243.262 29.704C242.51 29.064 242.134 28.304 242.134 27.424C242.134 26.608 242.35 25.928 242.782 25.384C243.214 24.84 243.79 24.432 244.51 24.16C245.23 23.888 246.022 23.752 246.886 23.752C247.958 23.752 248.878 23.936 249.646 24.304C250.43 24.672 251.062 25.168 251.542 25.792C251.702 26 251.766 26.216 251.734 26.44C251.702 26.664 251.574 26.848 251.35 26.992C251.158 27.104 250.934 27.144 250.678 27.112C250.438 27.064 250.23 26.944 250.054 26.752C249.654 26.288 249.19 25.952 248.662 25.744C248.134 25.52 247.526 25.408 246.838 25.408C245.958 25.408 245.254 25.592 244.726 25.96C244.198 26.312 243.934 26.76 243.934 27.304C243.934 27.672 244.03 27.992 244.222 28.264C244.43 28.536 244.774 28.776 245.254 28.984C245.75 29.192 246.438 29.368 247.318 29.512C248.518 29.704 249.462 29.992 250.15 30.376C250.854 30.744 251.35 31.184 251.638 31.696C251.942 32.192 252.094 32.736 252.094 33.328C252.094 34.08 251.87 34.744 251.422 35.32C250.99 35.88 250.382 36.32 249.598 36.64C248.83 36.96 247.942 37.12 246.934 37.12ZM260.352 37.12C259.12 37.12 258.016 36.832 257.04 36.256C256.064 35.664 255.288 34.864 254.712 33.856C254.152 32.848 253.872 31.712 253.872 30.448C253.872 29.168 254.16 28.024 254.736 27.016C255.328 26.008 256.128 25.216 257.136 24.64C258.144 24.048 259.28 23.752 260.544 23.752C261.808 23.752 262.936 24.048 263.928 24.64C264.936 25.216 265.728 26.008 266.304 27.016C266.896 28.024 267.2 29.168 267.216 30.448L266.472 31.024C266.472 32.176 266.2 33.216 265.656 34.144C265.128 35.056 264.4 35.784 263.472 36.328C262.56 36.856 261.52 37.12 260.352 37.12ZM260.544 35.44C261.472 35.44 262.296 35.224 263.016 34.792C263.752 34.36 264.328 33.768 264.744 33.016C265.176 32.248 265.392 31.392 265.392 30.448C265.392 29.488 265.176 28.632 264.744 27.88C264.328 27.128 263.752 26.536 263.016 26.104C262.296 25.656 261.472 25.432 260.544 25.432C259.632 25.432 258.808 25.656 258.072 26.104C257.336 26.536 256.752 27.128 256.32 27.88C255.888 28.632 255.672 29.488 255.672 30.448C255.672 31.392 255.888 32.248 256.32 33.016C256.752 33.768 257.336 34.36 258.072 34.792C258.808 35.224 259.632 35.44 260.544 35.44ZM266.28 37C266.008 37 265.784 36.92 265.608 36.76C265.432 36.584 265.344 36.36 265.344 36.088V31.984L265.8 30.088L267.216 30.448V36.088C267.216 36.36 267.128 36.584 266.952 36.76C266.776 36.92 266.552 37 266.28 37ZM260.52 21.856C259.848 21.856 259.224 21.736 258.648 21.496C258.088 21.24 257.632 20.904 257.28 20.488C256.944 20.056 256.776 19.584 256.776 19.072C256.776 18.8 256.864 18.576 257.04 18.4C257.216 18.208 257.432 18.112 257.688 18.112C257.928 18.112 258.136 18.192 258.312 18.352C258.488 18.512 258.576 18.72 258.576 18.976C258.576 19.328 258.76 19.64 259.128 19.912C259.496 20.168 259.96 20.296 260.52 20.296C261.128 20.296 261.608 20.168 261.96 19.912C262.312 19.656 262.488 19.344 262.488 18.976C262.488 18.72 262.576 18.512 262.752 18.352C262.928 18.192 263.144 18.112 263.4 18.112C263.656 18.112 263.864 18.208 264.024 18.4C264.2 18.576 264.288 18.792 264.288 19.048C264.272 19.608 264.088 20.104 263.736 20.536C263.384 20.952 262.928 21.28 262.368 21.52C261.808 21.744 261.192 21.856 260.52 21.856ZM260.376 17.848C260.12 17.848 259.896 17.76 259.704 17.584C259.528 17.408 259.44 17.184 259.44 16.912C259.44 16.672 259.512 16.464 259.656 16.288L262.368 13.576C262.544 13.4 262.76 13.312 263.016 13.312C263.288 13.312 263.512 13.408 263.688 13.6C263.864 13.776 263.952 14 263.952 14.272C263.952 14.384 263.928 14.496 263.88 14.608C263.848 14.72 263.784 14.816 263.688 14.896L261 17.608C260.84 17.768 260.632 17.848 260.376 17.848ZM287.826 37C287.554 37 287.33 36.92 287.154 36.76C286.978 36.584 286.89 36.36 286.89 36.088V29.176C286.89 28.04 286.594 27.144 286.002 26.488C285.41 25.816 284.65 25.48 283.722 25.48C282.73 25.48 281.914 25.816 281.274 26.488C280.65 27.144 280.346 28.024 280.362 29.128H278.706C278.722 28.056 278.954 27.112 279.402 26.296C279.85 25.48 280.466 24.848 281.25 24.4C282.034 23.952 282.922 23.728 283.914 23.728C284.858 23.728 285.69 23.952 286.41 24.4C287.146 24.848 287.714 25.48 288.114 26.296C288.53 27.112 288.738 28.072 288.738 29.176V36.088C288.738 36.36 288.65 36.584 288.474 36.76C288.314 36.92 288.098 37 287.826 37ZM271.026 37C270.738 37 270.506 36.92 270.33 36.76C270.17 36.584 270.09 36.36 270.09 36.088V24.808C270.09 24.536 270.17 24.312 270.33 24.136C270.506 23.96 270.738 23.872 271.026 23.872C271.298 23.872 271.514 23.96 271.674 24.136C271.85 24.312 271.938 24.536 271.938 24.808V36.088C271.938 36.36 271.85 36.584 271.674 36.76C271.514 36.92 271.298 37 271.026 37ZM279.45 37C279.178 37 278.954 36.92 278.778 36.76C278.602 36.584 278.514 36.36 278.514 36.088V29.176C278.514 28.04 278.218 27.144 277.626 26.488C277.034 25.816 276.274 25.48 275.346 25.48C274.354 25.48 273.538 25.808 272.898 26.464C272.258 27.104 271.938 27.944 271.938 28.984H270.618C270.65 27.96 270.874 27.056 271.29 26.272C271.722 25.472 272.306 24.848 273.042 24.4C273.778 23.952 274.61 23.728 275.538 23.728C276.482 23.728 277.314 23.952 278.034 24.4C278.77 24.848 279.338 25.48 279.738 26.296C280.154 27.112 280.362 28.072 280.362 29.176V36.088C280.362 36.36 280.274 36.584 280.098 36.76C279.938 36.92 279.722 37 279.45 37ZM304.392 37.12C303.128 37.12 301.992 36.832 300.984 36.256C299.976 35.664 299.176 34.864 298.584 33.856C298.008 32.848 297.72 31.704 297.72 30.424C297.72 29.16 298 28.024 298.56 27.016C299.136 26.008 299.912 25.216 300.888 24.64C301.864 24.048 302.968 23.752 304.2 23.752C305.272 23.752 306.24 23.984 307.104 24.448C307.968 24.896 308.664 25.496 309.192 26.248V19.192C309.192 18.904 309.28 18.68 309.456 18.52C309.632 18.344 309.856 18.256 310.128 18.256C310.4 18.256 310.624 18.344 310.8 18.52C310.976 18.68 311.064 18.904 311.064 19.192V30.52C311.032 31.768 310.72 32.896 310.128 33.904C309.552 34.896 308.76 35.68 307.752 36.256C306.76 36.832 305.64 37.12 304.392 37.12ZM304.392 35.44C305.32 35.44 306.144 35.224 306.864 34.792C307.6 34.344 308.176 33.744 308.592 32.992C309.024 32.24 309.24 31.384 309.24 30.424C309.24 29.48 309.024 28.632 308.592 27.88C308.176 27.112 307.6 26.512 306.864 26.08C306.144 25.648 305.32 25.432 304.392 25.432C303.48 25.432 302.656 25.648 301.92 26.08C301.184 26.512 300.6 27.112 300.168 27.88C299.736 28.632 299.52 29.48 299.52 30.424C299.52 31.384 299.736 32.24 300.168 32.992C300.6 33.744 301.184 34.344 301.92 34.792C302.656 35.224 303.48 35.44 304.392 35.44ZM320.616 37.12C319.32 37.12 318.168 36.84 317.16 36.28C316.168 35.704 315.384 34.912 314.808 33.904C314.248 32.896 313.968 31.744 313.968 30.448C313.968 29.136 314.232 27.984 314.76 26.992C315.304 25.984 316.048 25.192 316.992 24.616C317.936 24.04 319.024 23.752 320.256 23.752C321.472 23.752 322.528 24.032 323.424 24.592C324.336 25.136 325.04 25.896 325.536 26.872C326.032 27.848 326.28 28.96 326.28 30.208C326.28 30.464 326.2 30.672 326.04 30.832C325.88 30.976 325.672 31.048 325.416 31.048H315.216V29.512H325.608L324.576 30.256C324.592 29.328 324.424 28.496 324.072 27.76C323.72 27.024 323.216 26.448 322.56 26.032C321.92 25.616 321.152 25.408 320.256 25.408C319.344 25.408 318.544 25.624 317.856 26.056C317.168 26.488 316.632 27.088 316.248 27.856C315.88 28.608 315.696 29.472 315.696 30.448C315.696 31.424 315.904 32.288 316.32 33.04C316.752 33.792 317.336 34.384 318.072 34.816C318.808 35.248 319.656 35.464 320.616 35.464C321.192 35.464 321.768 35.368 322.344 35.176C322.936 34.968 323.408 34.712 323.76 34.408C323.936 34.264 324.136 34.192 324.36 34.192C324.584 34.176 324.776 34.232 324.936 34.36C325.144 34.552 325.248 34.76 325.248 34.984C325.264 35.208 325.176 35.4 324.984 35.56C324.456 36.008 323.784 36.384 322.968 36.688C322.152 36.976 321.368 37.12 320.616 37.12ZM317.4 21.784C317.128 21.784 316.896 21.712 316.704 21.568C316.528 21.408 316.44 21.2 316.44 20.944C316.44 20.608 316.592 20.336 316.896 20.128L319.728 18.256C319.856 18.176 320.008 18.136 320.184 18.136C320.28 18.136 320.368 18.152 320.448 18.184C320.528 18.2 320.6 18.224 320.664 18.256L323.472 20.128C323.776 20.336 323.928 20.608 323.928 20.944C323.928 21.184 323.84 21.384 323.664 21.544C323.488 21.704 323.264 21.784 322.992 21.784C322.88 21.784 322.776 21.768 322.68 21.736C322.6 21.704 322.512 21.656 322.416 21.592L320.184 20.056L317.952 21.592C317.776 21.72 317.592 21.784 317.4 21.784ZM321.6 17.488C321.2 17.488 320.84 17.4 320.52 17.224C320.216 17.032 319.952 16.824 319.728 16.6C319.504 16.392 319.312 16.232 319.152 16.12C318.992 16.008 318.824 15.952 318.648 15.952C318.456 15.952 318.288 16.032 318.144 16.192C318.016 16.352 317.88 16.568 317.736 16.84C317.624 17.048 317.464 17.192 317.256 17.272C317.064 17.352 316.864 17.352 316.656 17.272C316.448 17.192 316.304 17.048 316.224 16.84C316.144 16.632 316.16 16.416 316.272 16.192C316.576 15.568 316.912 15.12 317.28 14.848C317.648 14.56 318.072 14.416 318.552 14.416C319.016 14.416 319.384 14.52 319.656 14.728C319.944 14.92 320.208 15.12 320.448 15.328C320.72 15.552 320.92 15.704 321.048 15.784C321.192 15.864 321.32 15.904 321.432 15.904C321.656 15.904 321.856 15.712 322.032 15.328C322.144 15.12 322.296 14.968 322.488 14.872C322.696 14.76 322.904 14.736 323.112 14.8C323.368 14.896 323.544 15.048 323.64 15.256C323.736 15.464 323.72 15.68 323.592 15.904C323.32 16.464 323.024 16.872 322.704 17.128C322.384 17.368 322.016 17.488 321.6 17.488ZM340.974 37.12C339.71 37.12 338.574 36.832 337.566 36.256C336.558 35.664 335.758 34.864 335.166 33.856C334.59 32.848 334.302 31.704 334.302 30.424C334.302 29.16 334.582 28.024 335.142 27.016C335.718 26.008 336.494 25.216 337.47 24.64C338.446 24.048 339.55 23.752 340.782 23.752C341.854 23.752 342.822 23.984 343.686 24.448C344.55 24.896 345.246 25.496 345.774 26.248V19.192C345.774 18.904 345.862 18.68 346.038 18.52C346.214 18.344 346.438 18.256 346.71 18.256C346.982 18.256 347.206 18.344 347.382 18.52C347.558 18.68 347.646 18.904 347.646 19.192V30.52C347.614 31.768 347.302 32.896 346.71 33.904C346.134 34.896 345.342 35.68 344.334 36.256C343.342 36.832 342.222 37.12 340.974 37.12ZM340.974 35.44C341.902 35.44 342.726 35.224 343.446 34.792C344.182 34.344 344.758 33.744 345.174 32.992C345.606 32.24 345.822 31.384 345.822 30.424C345.822 29.48 345.606 28.632 345.174 27.88C344.758 27.112 344.182 26.512 343.446 26.08C342.726 25.648 341.902 25.432 340.974 25.432C340.062 25.432 339.238 25.648 338.502 26.08C337.766 26.512 337.182 27.112 336.75 27.88C336.318 28.632 336.102 29.48 336.102 30.424C336.102 31.384 336.318 32.24 336.75 32.992C337.182 33.744 337.766 34.344 338.502 34.792C339.238 35.224 340.062 35.44 340.974 35.44ZM357.031 37.12C355.799 37.12 354.695 36.832 353.719 36.256C352.743 35.664 351.967 34.864 351.391 33.856C350.831 32.848 350.551 31.712 350.551 30.448C350.551 29.168 350.839 28.024 351.415 27.016C352.007 26.008 352.807 25.216 353.815 24.64C354.823 24.048 355.959 23.752 357.223 23.752C358.487 23.752 359.615 24.048 360.607 24.64C361.615 25.216 362.407 26.008 362.983 27.016C363.575 28.024 363.879 29.168 363.895 30.448L363.151 31.024C363.151 32.176 362.879 33.216 362.335 34.144C361.807 35.056 361.079 35.784 360.151 36.328C359.239 36.856 358.199 37.12 357.031 37.12ZM357.223 35.44C358.151 35.44 358.975 35.224 359.695 34.792C360.431 34.36 361.007 33.768 361.423 33.016C361.855 32.248 362.071 31.392 362.071 30.448C362.071 29.488 361.855 28.632 361.423 27.88C361.007 27.128 360.431 26.536 359.695 26.104C358.975 25.656 358.151 25.432 357.223 25.432C356.311 25.432 355.487 25.656 354.751 26.104C354.015 26.536 353.431 27.128 352.999 27.88C352.567 28.632 352.351 29.488 352.351 30.448C352.351 31.392 352.567 32.248 352.999 33.016C353.431 33.768 354.015 34.36 354.751 34.792C355.487 35.224 356.311 35.44 357.223 35.44ZM362.959 37C362.687 37 362.463 36.92 362.287 36.76C362.111 36.584 362.023 36.36 362.023 36.088V31.984L362.479 30.088L363.895 30.448V36.088C363.895 36.36 363.807 36.584 363.631 36.76C363.455 36.92 363.231 37 362.959 37ZM357.199 21.736C356.959 21.736 356.751 21.648 356.575 21.472L353.863 18.784C353.703 18.592 353.623 18.376 353.623 18.136C353.623 17.864 353.711 17.64 353.887 17.464C354.063 17.272 354.279 17.176 354.535 17.176C354.791 17.176 355.015 17.272 355.207 17.464L357.895 20.176C358.055 20.304 358.135 20.504 358.135 20.776C358.135 21.048 358.047 21.28 357.871 21.472C357.695 21.648 357.471 21.736 357.199 21.736ZM378.025 37C377.753 37 377.529 36.912 377.353 36.736C377.177 36.56 377.089 36.344 377.089 36.088V29.848C377.089 28.856 376.897 28.04 376.513 27.4C376.145 26.76 375.633 26.28 374.977 25.96C374.337 25.64 373.609 25.48 372.793 25.48C372.009 25.48 371.297 25.632 370.657 25.936C370.033 26.24 369.537 26.656 369.169 27.184C368.801 27.712 368.617 28.312 368.617 28.984H367.297C367.329 27.976 367.601 27.08 368.113 26.296C368.625 25.496 369.305 24.872 370.153 24.424C371.001 23.96 371.945 23.728 372.985 23.728C374.121 23.728 375.137 23.968 376.033 24.448C376.929 24.912 377.633 25.6 378.145 26.512C378.673 27.424 378.937 28.536 378.937 29.848V36.088C378.937 36.344 378.849 36.56 378.673 36.736C378.497 36.912 378.281 37 378.025 37ZM367.705 37C367.417 37 367.185 36.92 367.009 36.76C366.849 36.584 366.769 36.36 366.769 36.088V24.808C366.769 24.52 366.849 24.296 367.009 24.136C367.185 23.96 367.417 23.872 367.705 23.872C367.977 23.872 368.193 23.96 368.353 24.136C368.529 24.296 368.617 24.52 368.617 24.808V36.088C368.617 36.36 368.529 36.584 368.353 36.76C368.193 36.92 367.977 37 367.705 37ZM388.075 37.12C386.811 37.12 385.691 36.84 384.715 36.28C383.739 35.704 382.971 34.912 382.411 33.904C381.867 32.896 381.595 31.744 381.595 30.448C381.595 29.136 381.883 27.976 382.459 26.968C383.035 25.96 383.827 25.176 384.835 24.616C385.843 24.04 386.987 23.752 388.267 23.752C389.563 23.752 390.707 24.04 391.699 24.616C392.707 25.176 393.491 25.96 394.051 26.968C394.627 27.976 394.923 29.136 394.939 30.448L393.859 31.024C393.859 32.208 393.611 33.264 393.115 34.192C392.619 35.104 391.931 35.824 391.051 36.352C390.187 36.864 389.195 37.12 388.075 37.12ZM388.315 42.184C387.051 42.184 385.939 41.944 384.979 41.464C384.019 41 383.227 40.36 382.603 39.544C382.427 39.352 382.347 39.144 382.363 38.92C382.395 38.696 382.515 38.512 382.723 38.368C382.931 38.224 383.163 38.176 383.419 38.224C383.675 38.272 383.875 38.392 384.019 38.584C384.483 39.16 385.075 39.624 385.795 39.976C386.531 40.328 387.379 40.504 388.339 40.504C389.235 40.504 390.043 40.288 390.763 39.856C391.483 39.424 392.051 38.816 392.467 38.032C392.899 37.248 393.115 36.328 393.115 35.272V31.624L393.811 30.232L394.939 30.448V35.344C394.939 36.64 394.651 37.8 394.075 38.824C393.499 39.864 392.715 40.68 391.723 41.272C390.731 41.88 389.595 42.184 388.315 42.184ZM388.267 35.44C389.211 35.44 390.043 35.232 390.763 34.816C391.499 34.384 392.075 33.792 392.491 33.04C392.907 32.288 393.115 31.424 393.115 30.448C393.115 29.472 392.907 28.608 392.491 27.856C392.075 27.088 391.499 26.496 390.763 26.08C390.043 25.648 389.211 25.432 388.267 25.432C387.323 25.432 386.483 25.648 385.747 26.08C385.011 26.496 384.435 27.088 384.019 27.856C383.603 28.608 383.395 29.472 383.395 30.448C383.395 31.424 383.603 32.288 384.019 33.04C384.435 33.792 385.011 34.384 385.747 34.816C386.483 35.232 387.323 35.44 388.267 35.44ZM409.98 37.12C408.716 37.12 407.588 36.832 406.596 36.256C405.62 35.664 404.844 34.864 404.268 33.856C403.708 32.848 403.428 31.712 403.428 30.448C403.428 29.168 403.7 28.024 404.244 27.016C404.788 26.008 405.532 25.216 406.476 24.64C407.42 24.048 408.508 23.752 409.74 23.752C410.716 23.752 411.612 23.944 412.428 24.328C413.26 24.712 413.988 25.288 414.612 26.056C414.788 26.248 414.852 26.456 414.804 26.68C414.756 26.888 414.62 27.072 414.396 27.232C414.22 27.36 414.02 27.408 413.796 27.376C413.588 27.328 413.404 27.208 413.244 27.016C412.316 25.96 411.148 25.432 409.74 25.432C408.844 25.432 408.052 25.648 407.364 26.08C406.692 26.512 406.164 27.104 405.78 27.856C405.412 28.608 405.228 29.472 405.228 30.448C405.228 31.408 405.428 32.264 405.828 33.016C406.228 33.768 406.788 34.36 407.508 34.792C408.228 35.224 409.052 35.44 409.98 35.44C410.604 35.44 411.172 35.36 411.684 35.2C412.212 35.024 412.676 34.76 413.076 34.408C413.268 34.248 413.468 34.16 413.676 34.144C413.884 34.128 414.076 34.192 414.252 34.336C414.444 34.512 414.548 34.712 414.564 34.936C414.596 35.16 414.524 35.352 414.348 35.512C413.18 36.584 411.724 37.12 409.98 37.12ZM423.39 37.144C422.254 37.144 421.238 36.912 420.342 36.448C419.446 35.968 418.734 35.272 418.206 34.36C417.694 33.448 417.438 32.336 417.438 31.024V24.784C417.438 24.528 417.526 24.312 417.702 24.136C417.878 23.96 418.094 23.872 418.35 23.872C418.622 23.872 418.846 23.96 419.022 24.136C419.198 24.312 419.286 24.528 419.286 24.784V31.024C419.286 32.016 419.47 32.832 419.838 33.472C420.222 34.112 420.734 34.592 421.374 34.912C422.03 35.232 422.766 35.392 423.582 35.392C424.366 35.392 425.07 35.24 425.694 34.936C426.334 34.632 426.838 34.216 427.206 33.688C427.574 33.16 427.758 32.56 427.758 31.888H429.078C429.03 32.896 428.75 33.8 428.238 34.6C427.742 35.384 427.07 36.008 426.222 36.472C425.374 36.92 424.43 37.144 423.39 37.144ZM428.67 37C428.398 37 428.174 36.92 427.998 36.76C427.838 36.584 427.758 36.352 427.758 36.064V24.784C427.758 24.512 427.838 24.296 427.998 24.136C428.174 23.96 428.398 23.872 428.67 23.872C428.942 23.872 429.166 23.96 429.342 24.136C429.518 24.296 429.606 24.512 429.606 24.784V36.064C429.606 36.352 429.518 36.584 429.342 36.76C429.166 36.92 428.942 37 428.67 37ZM423.63 21.736C423.39 21.736 423.182 21.648 423.006 21.472L420.294 18.784C420.134 18.592 420.054 18.376 420.054 18.136C420.054 17.864 420.142 17.64 420.318 17.464C420.494 17.272 420.71 17.176 420.966 17.176C421.222 17.176 421.446 17.272 421.638 17.464L424.326 20.176C424.486 20.304 424.566 20.504 424.566 20.776C424.566 21.048 424.478 21.28 424.302 21.472C424.126 21.648 423.902 21.736 423.63 21.736ZM444.456 37C444.184 37 443.96 36.912 443.784 36.736C443.608 36.56 443.52 36.344 443.52 36.088V29.848C443.52 28.856 443.328 28.04 442.944 27.4C442.576 26.76 442.064 26.28 441.408 25.96C440.768 25.64 440.04 25.48 439.224 25.48C438.44 25.48 437.728 25.632 437.088 25.936C436.464 26.24 435.968 26.656 435.6 27.184C435.232 27.712 435.048 28.312 435.048 28.984H433.728C433.76 27.976 434.032 27.08 434.544 26.296C435.056 25.496 435.736 24.872 436.584 24.424C437.432 23.96 438.376 23.728 439.416 23.728C440.552 23.728 441.568 23.968 442.464 24.448C443.36 24.912 444.064 25.6 444.576 26.512C445.104 27.424 445.368 28.536 445.368 29.848V36.088C445.368 36.344 445.28 36.56 445.104 36.736C444.928 36.912 444.712 37 444.456 37ZM434.136 37C433.848 37 433.616 36.92 433.44 36.76C433.28 36.584 433.2 36.36 433.2 36.088V24.808C433.2 24.52 433.28 24.296 433.44 24.136C433.616 23.96 433.848 23.872 434.136 23.872C434.408 23.872 434.624 23.96 434.784 24.136C434.96 24.296 435.048 24.52 435.048 24.808V36.088C435.048 36.36 434.96 36.584 434.784 36.76C434.624 36.92 434.408 37 434.136 37ZM454.506 37.12C453.242 37.12 452.122 36.84 451.146 36.28C450.17 35.704 449.402 34.912 448.842 33.904C448.298 32.896 448.026 31.744 448.026 30.448C448.026 29.136 448.314 27.976 448.89 26.968C449.466 25.96 450.258 25.176 451.266 24.616C452.274 24.04 453.418 23.752 454.698 23.752C455.994 23.752 457.138 24.04 458.13 24.616C459.138 25.176 459.922 25.96 460.482 26.968C461.058 27.976 461.354 29.136 461.37 30.448L460.29 31.024C460.29 32.208 460.042 33.264 459.546 34.192C459.05 35.104 458.362 35.824 457.482 36.352C456.618 36.864 455.626 37.12 454.506 37.12ZM454.746 42.184C453.482 42.184 452.37 41.944 451.41 41.464C450.45 41 449.658 40.36 449.034 39.544C448.858 39.352 448.778 39.144 448.794 38.92C448.826 38.696 448.946 38.512 449.154 38.368C449.362 38.224 449.594 38.176 449.85 38.224C450.106 38.272 450.306 38.392 450.45 38.584C450.914 39.16 451.506 39.624 452.226 39.976C452.962 40.328 453.81 40.504 454.77 40.504C455.666 40.504 456.474 40.288 457.194 39.856C457.914 39.424 458.482 38.816 458.898 38.032C459.33 37.248 459.546 36.328 459.546 35.272V31.624L460.242 30.232L461.37 30.448V35.344C461.37 36.64 461.082 37.8 460.506 38.824C459.93 39.864 459.146 40.68 458.154 41.272C457.162 41.88 456.026 42.184 454.746 42.184ZM454.698 35.44C455.642 35.44 456.474 35.232 457.194 34.816C457.93 34.384 458.506 33.792 458.922 33.04C459.338 32.288 459.546 31.424 459.546 30.448C459.546 29.472 459.338 28.608 458.922 27.856C458.506 27.088 457.93 26.496 457.194 26.08C456.474 25.648 455.642 25.432 454.698 25.432C453.754 25.432 452.914 25.648 452.178 26.08C451.442 26.496 450.866 27.088 450.45 27.856C450.034 28.608 449.826 29.472 449.826 30.448C449.826 31.424 450.034 32.288 450.45 33.04C450.866 33.792 451.442 34.384 452.178 34.816C452.914 35.232 453.754 35.44 454.698 35.44Z" fill="#1A1A1A"/>
</svg>
