<svg width="36" height="37" viewBox="0 0 36 37" fill="none" xmlns="http://www.w3.org/2000/svg">
<g clipPath="url(#clip0_104_1496)">
<mask id="mask0_104_1496" style="mask-type:alpha" maskUnits="userSpaceOnUse" x="0" y="0" width="36" height="36">
<path fillRule="evenodd" clipRule="evenodd" d="M10.5 32.3748C10.5 30.672 11.8431 29.2915 13.5 29.2915C15.1569 29.2915 16.5 30.672 16.5 32.3748C16.5 34.0777 15.1569 35.4582 13.5 35.4582C11.8431 35.4582 10.5 34.0777 10.5 32.3748Z" fill="#7A869A"/>
<path fillRule="evenodd" clipRule="evenodd" d="M27 32.3748C27 30.672 28.3431 29.2915 30 29.2915C31.6569 29.2915 33 30.672 33 32.3748C33 34.0777 31.6569 35.4582 30 35.4582C28.3431 35.4582 27 34.0777 27 32.3748Z" fill="#7A869A"/>
<path fillRule="evenodd" clipRule="evenodd" d="M0 1.54167C0 0.690228 0.671573 0 1.5 0H7.5C8.21494 0 8.83052 0.518594 8.97083 1.2391L10.2306 7.70833H34.5C34.947 7.70833 35.3708 7.91326 35.6557 8.26727C35.9407 8.62128 36.0572 9.08747 35.9734 9.5388L33.5713 22.4849C33.3656 23.5496 32.802 24.506 31.9793 25.1866C31.1607 25.8639 30.1374 26.2252 29.087 26.2083H14.533C13.4826 26.2252 12.4593 25.8639 11.6407 25.1866C10.8184 24.5062 10.255 23.5504 10.049 22.4862C10.0489 22.4858 10.0491 22.4867 10.049 22.4862L7.54319 9.61877C7.53302 9.57621 7.52457 9.53295 7.51793 9.48908L6.27047 3.08333H1.5C0.671573 3.08333 0 2.39311 0 1.54167ZM10.8311 10.7917L12.9913 21.8842C13.0598 22.2391 13.2477 22.5579 13.5219 22.7848C13.7961 23.0117 14.1393 23.1322 14.4913 23.1253L14.52 23.125H29.1L29.1287 23.1253C29.4807 23.1322 29.8239 23.0117 30.0981 22.7848C30.371 22.559 30.5584 22.2421 30.6278 21.8892L32.6869 10.7917H10.8311Z" fill="#7A869A"/>
</mask>
<g mask="url(#mask0_104_1496)">
<rect width="36" height="37" fill="#FFAAAF"/>
</g>
</g>
<defs>
<clipPath id="clip0_104_1496">
<rect width="36" height="37" fill="white"/>
</clipPath>
</defs>
</svg>
