


    <svg
      xmlns="http://www.w3.org/2000/svg"
      width="132"
      height="32"
      viewBox="0 0 132 32"
      fill="none"
    >
      <g clipPath="url(#clip0_116_3280)">
        <path
          d="M113.182 0.00012207C111.112 0.00012207 109.419 1.67192 109.425 3.74202C109.419 5.82259 111.128 7.48915 113.203 7.48391C115.273 7.48915 116.929 5.82259 116.929 3.74202C116.924 1.67716 115.252 0.00012207 113.182 0.00012207ZM45.2517 0.063011C43.1711 0.063011 41.494 1.71909 41.494 3.78918C41.494 5.86976 43.1763 7.56252 45.2517 7.56776C47.3165 7.56776 48.9936 5.86976 48.9936 3.78918C48.9988 1.71909 47.3165 0.063011 45.2517 0.063011ZM101.149 4.26609C99.0846 4.26609 97.3919 5.93789 97.3919 8.00798C97.3919 10.0781 99.0794 11.7656 101.149 11.7656C103.225 11.7656 104.891 10.0833 104.891 8.00798C104.897 5.94313 103.225 4.26609 101.149 4.26609ZM125.288 4.26609C123.223 4.26609 121.531 5.93789 121.531 8.00798C121.531 10.0781 123.223 11.7656 125.288 11.7656C127.369 11.7656 129.014 10.0781 129.014 8.00798C129.014 5.93789 127.369 4.26085 125.288 4.26609ZM57.0905 4.32898C55.0257 4.32898 53.3329 6.02174 53.3329 8.08659C53.3329 10.1619 55.0204 11.8285 57.0905 11.8285C59.1501 11.8285 60.8324 10.1567 60.8324 8.08659C60.8324 6.02174 59.1554 4.32898 57.0905 4.32898ZM33.1927 4.42855C31.1279 4.42331 29.4508 6.09511 29.4508 8.15996V8.17569C29.4508 10.251 31.1174 11.9385 33.1927 11.9333C35.2523 11.9333 36.9346 10.2458 36.9346 8.17569C36.9346 6.10035 35.2523 4.42855 33.1927 4.42855ZM114.466 13.1701C114.466 13.1701 107.019 13.2173 106.93 13.2173C105.662 13.2173 104.587 14.2969 104.587 15.5599L104.572 29.102H104.587C104.645 30.7057 105.987 32.0001 107.601 32.0001C109.231 32.0001 110.572 30.7057 110.63 29.102V24.3958C110.63 24.3958 113.607 24.3801 113.706 24.3801C114.854 24.3801 115.808 23.4682 115.808 22.3152C115.808 21.157 114.859 20.2137 113.706 20.2137H110.63V18.9611H114.471C116.065 18.9611 117.343 17.6876 117.338 16.0945C117.333 14.517 116.059 13.1701 114.466 13.1701ZM128.171 13.1701C128.171 13.1701 120.724 13.2173 120.635 13.2173C119.356 13.2173 118.292 14.2916 118.292 15.5599V29.102H118.308C118.36 30.7057 119.681 32.0001 121.305 32.0001C122.94 32.0001 124.251 30.7109 124.303 29.102H124.319V24.3958C124.319 24.3958 127.29 24.3801 127.395 24.3801C128.543 24.3801 129.497 23.4682 129.497 22.3152C129.497 21.157 128.543 20.2137 127.395 20.2137H124.314V18.9611H128.155C129.738 18.9611 131.022 17.6876 131.022 16.0945C131.022 14.517 129.753 13.1649 128.171 13.1701ZM60.7643 13.2016C59.1763 13.2016 57.8976 14.4803 57.8976 16.0525C57.8976 16.1573 57.9185 16.2674 57.929 16.3775L57.9133 29.0758L57.929 29.2225C58.0076 30.7214 59.2497 31.9268 60.78 31.9268C62.3679 31.9268 63.6467 30.6532 63.6467 29.0758C63.6467 28.8924 63.631 28.7194 63.5995 28.557V24.7889L67.8655 30.517C67.9284 30.6113 67.9965 30.7057 68.0594 30.8105L68.0751 30.8419C68.6254 31.4813 69.4587 31.8848 70.3706 31.8848C72.0319 31.8848 73.3683 30.5432 73.3683 28.8871C73.3735 28.3106 73.211 27.7446 72.8966 27.2572L72.8494 27.1944C72.8075 27.1262 72.7708 27.0581 72.7184 27.0005L68.8612 21.8226L72.0004 18.0283H71.9847C72.3935 17.5304 72.6503 16.8963 72.6503 16.1888C72.645 14.5746 71.3349 13.2435 69.7207 13.2435C68.6621 13.2435 67.7449 13.8042 67.2314 14.6428L63.5995 19.024V16.4823C63.6152 16.3408 63.631 16.1888 63.631 16.042C63.631 14.4803 62.347 13.2016 60.7643 13.2016ZM2.54482 13.2173C1.14554 13.2173 0.024023 14.3598 0.024023 15.7381C0.024023 15.7381 0.00830078 29.1858 0.00830078 29.4112C0.00830078 30.8419 1.09838 31.9163 2.5291 31.9163L9.03811 31.932C12.235 31.932 14.8344 29.3483 14.8344 26.1514C14.8344 24.3434 14.0273 22.7345 12.7328 21.6759C13.4927 20.7744 13.9696 19.6058 13.9696 18.3218C13.9749 15.5127 11.6428 13.2068 8.80751 13.212H2.54482V13.2173ZM46.4937 13.3011C41.3787 13.3011 37.2176 17.4571 37.2176 22.5773C37.2176 27.6975 41.3787 31.8691 46.4937 31.8691C51.6139 31.8691 55.7751 27.6975 55.7698 22.5773C55.7698 17.4571 51.6139 13.3011 46.4937 13.3011ZM25.5098 13.3326C20.3843 13.3326 16.2441 17.499 16.2494 22.6297C16.2494 27.7446 20.3791 31.8953 25.5098 31.8901C30.6405 31.8901 34.7859 27.7446 34.7859 22.6297C34.7859 17.5042 30.6405 13.3326 25.5098 13.3326ZM93.8072 13.3326C88.666 13.3326 84.4944 17.5147 84.4944 22.6611C84.4944 27.797 88.6608 31.9739 93.8072 31.9739C98.9431 31.9739 103.12 27.797 103.12 22.6611C103.12 17.5147 98.9483 13.3326 93.8072 13.3326ZM5.06562 17.4308H7.39251C8.16814 17.4308 8.79179 18.044 8.79179 18.8301C8.79179 19.5953 8.1629 20.198 7.39251 20.198C7.31914 20.198 5.06562 20.2137 5.06562 20.2137V17.4308ZM78.2998 18.6519C76.2297 18.6519 74.5632 20.3395 74.5579 22.4096C74.5632 24.4797 76.2297 26.1672 78.2998 26.1672C80.3751 26.1672 82.0574 24.4797 82.0574 22.4096C82.0522 20.3447 80.3647 18.6519 78.2998 18.6519ZM46.4937 18.7358C48.6215 18.7358 50.3509 20.46 50.3509 22.593C50.3509 24.7155 48.6215 26.4345 46.4937 26.4345C44.366 26.4345 42.6523 24.705 42.6523 22.5773C42.647 20.46 44.3607 18.741 46.478 18.7358H46.4937ZM25.5098 18.7672C27.6323 18.7672 29.367 20.4914 29.367 22.6244C29.367 24.7522 27.6375 26.4711 25.5098 26.4659C23.403 26.4711 21.6735 24.7522 21.6683 22.6244C21.6683 20.4914 23.3978 18.7672 25.5098 18.7672ZM93.8072 18.7987C95.9402 18.7987 97.6644 20.5124 97.6644 22.6559C97.6644 24.7836 95.9349 26.5131 93.8072 26.5131C91.6742 26.5131 89.9447 24.7836 89.95 22.6559C89.9447 20.5281 91.6637 18.8039 93.7915 18.7987H93.8072ZM5.06562 24.1704L8.02664 24.1862C8.83372 24.1862 9.49405 24.8255 9.49405 25.6326C9.48881 26.4502 8.83896 27.1 8.02664 27.1H5.08134L5.06562 24.1704ZM128.04 27.1C126.688 27.1 125.613 28.1849 125.613 29.5422C125.618 30.9048 126.682 31.9844 128.04 31.9844C129.392 31.9844 130.482 30.8996 130.482 29.5422C130.487 28.1953 129.397 27.1053 128.05 27.1C128.05 27.1 128.045 27.1 128.04 27.1ZM128.04 27.3463C129.245 27.3463 130.236 28.3264 130.236 29.5422C130.236 30.7528 129.245 31.7381 128.04 31.7381C126.829 31.7381 125.86 30.7476 125.86 29.5422C125.86 28.3264 126.829 27.3463 128.04 27.3463ZM126.934 28.0958V30.9258H127.521V29.82H128.124C128.297 29.82 128.422 29.8409 128.48 29.9038C128.543 29.9562 128.58 30.082 128.58 30.2602V30.5222C128.58 30.6113 128.59 30.6847 128.595 30.7685C128.606 30.8157 128.627 30.8734 128.642 30.931H129.292V30.8681C129.235 30.8367 129.193 30.7633 129.177 30.6899C129.166 30.6428 129.161 30.5589 129.161 30.4279V30.2497C129.161 30.0506 129.135 29.9038 129.077 29.8095C129.025 29.7099 128.92 29.6365 128.8 29.5841C128.946 29.5317 129.077 29.4374 129.14 29.3064C129.208 29.1806 129.235 29.0496 129.24 28.9133C129.24 28.798 129.224 28.7089 129.193 28.6198C129.151 28.5307 129.093 28.4521 129.03 28.3735C128.962 28.2844 128.868 28.2215 128.768 28.1796C128.658 28.1325 128.522 28.1062 128.328 28.0958H126.934ZM127.521 28.5989H128.202C128.333 28.5989 128.417 28.6146 128.48 28.646C128.595 28.7037 128.658 28.8137 128.658 28.9867C128.658 29.1387 128.59 29.2435 128.48 29.2959C128.412 29.3273 128.323 29.3431 128.186 29.3431H127.521V28.5989Z"
          fill="#4C4C4C"
        />
      </g>
      <defs>
        <clipPath id="clip0_116_3280">
          <rect
            width="131.019"
            height="32"
            fill="white"
            transform="translate(0.00292969 0.00012207)"
          />
        </clipPath>
      </defs>
    </svg>
 
