
    <svg
      xmlns="http://www.w3.org/2000/svg"
      width="96"
      height="32"
      viewBox="0 0 96 32"
      fill="none"
    >
      <path
        fillRule="evenodd"
        clipRule="evenodd"
        d="M1.83049 25.5531L9.5362 25.4494L9.55815 25.4045L1.25467 24.0752L1.2123 23.9149L8.17475 23.8154C8.17475 23.8154 8.11706 23.6771 7.93942 23.334L0.775837 22.1931L0.751334 22.0328L7.45344 21.9363L7.34879 21.4687L0.552757 20.4539L0.5451 20.2563L7.14715 20.1614L7.0961 19.6749L0.496094 18.5901L0.507324 18.4288L7.09814 18.3338C7.06394 18.1455 7.11907 17.7647 7.11907 17.7647L0.600742 16.7723L0.62984 16.6099L7.21606 16.5334C7.21504 16.4394 7.25333 16.0939 7.25333 16.0939L0.84271 14.9427L0.871808 14.7809L7.52031 14.6849C7.52031 14.6849 7.5637 14.3204 7.63976 14.1311L1.2317 13.153L1.27866 12.9906L7.94095 12.8947C7.94095 12.8947 8.07929 12.5087 8.15586 12.3663L1.7774 11.4041L1.82437 11.2601L8.59896 11.1626C8.59896 11.1626 8.79498 10.7547 8.84042 10.6445L2.51096 9.66486L2.5763 9.52039L9.47137 9.42136C9.47137 9.42136 9.65616 9.0584 9.82564 8.8047L3.50283 7.82559L3.56766 7.69899L10.6587 7.61477C10.6587 7.61477 10.8721 7.27887 11.0585 7.10377L4.66672 6.14611L4.78567 6.00113L12.0355 5.897C12.0355 5.897 12.3183 5.58867 12.5205 5.42888L6.23594 4.46969L6.33702 4.32472L13.7242 4.21241L14.2071 3.78412L8.48257 2.54722L8.46878 2.54875C10.9257 0.991785 13.9748 0.0509692 17.6488 0.00196299C24.4785 -0.0904341 30.2454 3.29048 30.4378 11.229L21.5585 11.3484C21.2645 8.53414 19.5865 7.57495 17.196 7.60711C12.0309 7.67653 9.80012 13.2142 9.87056 18.4655C9.91906 22.0507 11.4878 24.4208 15.2868 24.3688C17.8055 24.3351 19.9276 23.4106 20.8337 20.922L16.565 20.9786L17.8433 14.4292L30.3077 14.2612L27.0334 31.0841L21.0996 31.1638L21.3161 28.2157L21.2298 28.131C19.3022 30.8039 16.2858 31.9545 13.0417 31.9984C6.70048 32.0842 3.4186 28.9473 1.83968 25.5786L1.83049 25.5531ZM47.5706 14.4945C46.6609 13.9575 45.5338 13.5874 44.0825 13.6042C42.2754 13.6247 40.3126 14.3592 40.3391 16.6314C40.3759 19.8347 46.8922 19.7872 46.9499 24.797C46.983 27.6716 45.0218 30.9529 40.4223 31.0055C38.2048 31.0316 36.6111 30.5568 35.071 29.9718L35.9184 27.4434C37.0486 28.1422 38.6152 28.617 39.9568 28.6022C42.8589 28.5685 44.0702 26.7476 44.0513 25.1595C44.0069 21.2722 37.4988 22.0318 37.4376 16.7207C37.3972 13.2433 40.5505 11.2356 43.6991 11.1994C45.2867 11.181 46.8508 11.4643 48.3088 12.0498L47.5706 14.4945ZM58.5138 30.2219C57.1758 30.566 55.7827 30.8284 54.3871 30.8442C50.9924 30.883 47.9371 29.5501 47.88 24.6219C47.8355 20.7617 50.4946 16.2679 55.4228 16.2108C58.79 16.172 60.7022 18.1761 60.741 21.4891C60.7512 22.4192 60.6512 23.2151 60.5235 24.0374L50.6947 24.1513C50.6437 24.4409 50.6196 24.7347 50.6228 25.0288C50.6565 27.9579 52.4733 28.7854 54.9649 28.7568C56.2513 28.742 57.6439 28.398 58.8972 27.8625L58.5138 30.2219ZM58.0921 22.1492C58.1432 21.7382 58.1661 21.4095 58.1621 21.0802C58.1442 19.438 57.1171 18.2726 55.1732 18.2945C53.0654 18.3185 51.4712 20.1721 50.9479 22.2319L58.0921 22.1492ZM62.4042 18.5937C62.5078 18.0173 62.6635 17.2766 62.763 16.4543L65.173 16.4262L64.76 18.6488H64.8146C65.6202 17.3246 67.1118 16.0755 69.5483 16.0474C69.7944 16.0443 70.2334 16.0944 70.7286 16.2807L70.1793 18.559C69.6846 18.3737 69.2732 18.2956 69.0818 18.2986C65.9061 18.3344 64.3848 21.8021 64.0489 23.531L62.6768 30.4195L60.1034 30.4496L62.4042 18.5937ZM71.5234 16.3522L74.0967 16.3231L71.3008 30.3194L68.7275 30.3495L71.5234 16.3522ZM74.9099 13.1923L72.0073 13.2255L72.5755 10.3162L75.4781 10.2831L74.9099 13.1923ZM84.3262 29.9228C82.9883 30.2668 81.5952 30.5292 80.1995 30.5451C76.8048 30.5849 73.7496 29.251 73.6929 24.3228C73.648 20.4626 76.3071 15.9688 81.2353 15.9116C84.6024 15.8733 86.5147 17.878 86.5535 21.19C86.5637 22.1211 86.4636 22.9159 86.336 23.7393L76.5072 23.8521C76.4562 24.1418 76.4321 24.4356 76.4352 24.7297C76.4689 27.6588 78.2857 28.4863 80.7774 28.4577C82.0638 28.4439 83.4564 28.0988 84.7096 27.5644L84.3262 29.9228ZM83.9046 21.85C83.9556 21.4391 83.9786 21.1104 83.9745 20.7811C83.9556 19.1389 82.9296 17.9734 80.9857 17.9954C78.8779 18.0204 77.2837 19.8729 76.7604 21.9327L83.9046 21.85Z"
        fill="#4C4C4C"
      />
      <path
        fillRule="evenodd"
        clipRule="evenodd"
        d="M95.2566 18.5427C94.5409 18.1945 93.4143 17.8515 92.4561 17.8627C91.3335 17.8755 89.8588 18.1935 89.8746 19.5907C89.9027 21.9716 94.6675 22.0262 94.7124 25.914C94.7512 29.2822 91.6694 30.4124 89.48 30.4374C87.2624 30.4634 86.437 30.1714 85.3931 29.8274L85.8596 27.6047C86.8775 28.0034 87.9506 28.3745 89.0721 28.3613C90.4688 28.3454 91.9956 27.7523 91.9762 26.1647C91.9492 23.7828 87.1813 23.4816 87.1404 19.9501C87.1067 16.9928 90.0497 15.809 92.3499 15.7825C93.5812 15.7682 94.8446 16.0546 95.9998 16.5069L95.2566 18.5427Z"
        fill="#4C4C4C"
      />
    </svg>

