<svg width="24" height="24" viewBox="0 0 24 24" fill="none" xmlns="http://www.w3.org/2000/svg">
<path fillRule="evenodd" clipRule="evenodd" d="M21 4.5C21 4.5 21 3.87868 20.5607 3.43934C20.5607 3.43934 20.1213 3 19.5 3H4.5C4.5 3 3.87868 3 3.43934 3.43934C3.43934 3.43934 3 3.87868 3 4.5V19.5C3 19.5 3 20.1213 3.43934 20.5607C3.43934 20.5607 3.87868 21 4.5 21H19.5C19.5 21 20.1213 21 20.5607 20.5607C20.5607 20.5607 21 20.1213 21 19.5V4.5ZM19.5 4.5V19.5H4.5V4.5H19.5Z" fill="#4C4C4C"/>
<path d="M8.25 2.25V5.25C8.25 5.66421 7.91421 6 7.5 6C7.08579 6 6.75 5.66421 6.75 5.25V2.25C6.75 1.83579 7.08579 1.5 7.5 1.5C7.91421 1.5 8.25 1.83579 8.25 2.25Z" fill="#4C4C4C"/>
<path d="M17.25 2.25V5.25C17.25 5.66421 16.9142 6 16.5 6C16.0858 6 15.75 5.66421 15.75 5.25V2.25C15.75 1.83579 16.0858 1.5 16.5 1.5C16.9142 1.5 17.25 1.83579 17.25 2.25Z" fill="#4C4C4C"/>
<path d="M20.25 9H3.75C3.33579 9 3 8.66421 3 8.25C3 7.83579 3.33579 7.5 3.75 7.5H20.25C20.6642 7.5 21 7.83579 21 8.25C21 8.66421 20.6642 9 20.25 9Z" fill="#4C4C4C"/>
<path d="M13.0014 15.0929L14.8588 13.3309C14.9982 13.1987 15.1829 13.125 15.375 13.125L15.3948 13.1253C15.5936 13.1305 15.7822 13.2145 15.9191 13.3588C16.0513 13.4982 16.125 13.6829 16.125 13.875L16.1247 13.8948C16.1195 14.0936 16.0355 14.2822 15.8912 14.4191L13.5193 16.6691C13.2306 16.9429 12.7784 16.9437 12.4888 16.6709L8.11069 12.5459C7.96591 12.4095 7.88125 12.2211 7.87533 12.0223L7.875 12L7.87513 11.9863C7.87854 11.7999 7.95127 11.6214 8.07913 11.4857C8.22084 11.3353 8.41834 11.25 8.625 11.25L8.6415 11.2502C8.82695 11.2543 9.00431 11.3269 9.13932 11.4541L13.0014 15.0929Z" fill="#4C4C4C"/>
</svg>
