<svg width="40" height="40" viewBox="0 0 40 40" fill="none" xmlns="http://www.w3.org/2000/svg">
<rect width="40" height="40" rx="20" fill="#EA4B48"/>
<g clipPath="url(#clip0_1168_7212)">
<path d="M28.9824 16.292C28.9402 15.3356 28.7855 14.6781 28.564 14.1084C28.3354 13.5036 27.9838 12.9621 27.5231 12.512C27.073 12.0549 26.528 11.6997 25.9302 11.4747C25.3571 11.2531 24.7031 11.0985 23.7466 11.0563C22.7831 11.0106 22.4772 11 20.0334 11C17.5895 11 17.2837 11.0106 16.3237 11.0527C15.3673 11.0949 14.7097 11.2497 14.1401 11.4711C13.5352 11.6997 12.9938 12.0513 12.5436 12.512C12.0865 12.9621 11.7315 13.5072 11.5063 14.1049C11.2848 14.6781 11.1301 15.3321 11.0879 16.2885C11.0422 17.252 11.0316 17.5579 11.0316 20.0018C11.0316 22.4456 11.0422 22.7515 11.0844 23.7115C11.1265 24.6679 11.2813 25.3254 11.5029 25.8952C11.7315 26.4999 12.0865 27.0414 12.5436 27.4915C12.9938 27.9486 13.5388 28.3038 14.1366 28.5288C14.7097 28.7504 15.3637 28.905 16.3202 28.9472C17.2801 28.9895 17.5861 28.9999 20.0299 28.9999C22.4738 28.9999 22.7797 28.9895 23.7396 28.9472C24.6961 28.905 25.3536 28.7504 25.9232 28.5288C27.1329 28.0611 28.0893 27.1047 28.557 25.8952C28.7784 25.322 28.9332 24.6679 28.9754 23.7115C29.0175 22.7515 29.0281 22.4456 29.0281 20.0018C29.0281 17.5579 29.0245 17.252 28.9824 16.292ZM27.3614 23.6411C27.3227 24.5202 27.175 24.9949 27.052 25.3114C26.7495 26.0956 26.1272 26.7179 25.343 27.0204C25.0265 27.1434 24.5484 27.2911 23.6728 27.3297C22.7234 27.372 22.4386 27.3824 20.0369 27.3824C17.6353 27.3824 17.347 27.372 16.401 27.3297C15.5219 27.2911 15.0472 27.1434 14.7308 27.0204C14.3405 26.8761 13.9853 26.6476 13.697 26.3487C13.3981 26.0568 13.1696 25.7052 13.0253 25.315C12.9023 24.9985 12.7546 24.5202 12.716 23.6447C12.6737 22.6953 12.6633 22.4104 12.6633 20.0088C12.6633 17.6071 12.6737 17.3188 12.716 16.373C12.7546 15.4939 12.9023 15.0192 13.0253 14.7027C13.1696 14.3123 13.3981 13.9573 13.7006 13.6688C13.9923 13.3699 14.344 13.1414 14.7343 12.9973C15.0508 12.8742 15.5291 12.7266 16.4046 12.6878C17.354 12.6457 17.6389 12.6351 20.0404 12.6351C22.4456 12.6351 22.7304 12.6457 23.6763 12.6878C24.5554 12.7266 25.0301 12.8742 25.3466 12.9973C25.7368 13.1414 26.092 13.3699 26.3803 13.6688C26.6792 13.9607 26.9078 14.3123 27.052 14.7027C27.175 15.0192 27.3227 15.4973 27.3614 16.373C27.4036 17.3224 27.4142 17.6071 27.4142 20.0088C27.4142 22.4104 27.4036 22.6917 27.3614 23.6411Z" fill="white"/>
<path d="M20.0334 15.3777C17.4806 15.3777 15.4094 17.4487 15.4094 20.0016C15.4094 22.5545 17.4806 24.6256 20.0334 24.6256C22.5863 24.6256 24.6573 22.5545 24.6573 20.0016C24.6573 17.4487 22.5863 15.3777 20.0334 15.3777ZM20.0334 23.0011C18.3773 23.0011 17.0339 21.6579 17.0339 20.0016C17.0339 18.3454 18.3773 17.0022 20.0334 17.0022C21.6896 17.0022 23.0328 18.3454 23.0328 20.0016C23.0328 21.6579 21.6896 23.0011 20.0334 23.0011Z" fill="white"/>
<path d="M25.9198 15.195C25.9198 15.7911 25.4364 16.2744 24.8402 16.2744C24.244 16.2744 23.7607 15.7911 23.7607 15.195C23.7607 14.5987 24.244 14.1155 24.8402 14.1155C25.4364 14.1155 25.9198 14.5987 25.9198 15.195Z" fill="white"/>
</g>
<defs>
<clipPath id="clip0_1168_7212">
<rect width="18" height="18" fill="white" transform="translate(11 11)"/>
</clipPath>
</defs>
</svg>
