<svg width="48" height="48" viewBox="0 0 48 48" fill="none" xmlns="http://www.w3.org/2000/svg">
<rect x="0.5" y="0.5" width="47" height="47" rx="5.5" fill="white"/>
<path d="M29.25 16.5V19.5C29.25 19.9142 29.5858 20.25 30 20.25C30.4142 20.25 30.75 19.9142 30.75 19.5V15.75C30.75 15.3358 30.4142 15 30 15H18C17.5858 15 17.25 15.3358 17.25 15.75V19.5C17.25 19.9142 17.5858 20.25 18 20.25C18.4142 20.25 18.75 19.9142 18.75 19.5V16.5H29.25Z" fill="#4C4C4C"/>
<path fillRule="evenodd" clipRule="evenodd" d="M17.25 32.625V26.25C17.25 25.8358 17.5858 25.5 18 25.5H30C30.4142 25.5 30.75 25.8358 30.75 26.25V32.625C30.75 33.0392 30.4142 33.375 30 33.375H18C17.5858 33.375 17.25 33.0392 17.25 32.625ZM29.25 31.875H18.75V27H29.25V31.875Z" fill="#4C4C4C"/>
<path d="M32.625 27.75H30C29.5858 27.75 29.25 28.0858 29.25 28.5C29.25 28.9142 29.5858 29.25 30 29.25H33.375C33.7892 29.25 34.125 28.9142 34.125 28.5V21C34.125 20.0534 33.4071 19.3899 33.4071 19.3899C32.7149 18.75 31.7531 18.75 31.7531 18.75H16.2469C15.2851 18.75 14.5929 19.3899 14.5929 19.3899C13.875 20.0534 13.875 21 13.875 21V28.5C13.875 28.9142 14.2108 29.25 14.625 29.25H18C18.4142 29.25 18.75 28.9142 18.75 28.5C18.75 28.0858 18.4142 27.75 18 27.75H15.375V21C15.375 20.7096 15.611 20.4914 15.611 20.4914C15.8722 20.25 16.2469 20.25 16.2469 20.25H31.7531C32.1278 20.25 32.389 20.4914 32.389 20.4914C32.625 20.7096 32.625 21 32.625 21V27.75Z" fill="#4C4C4C"/>
<path d="M30.75 22.875C30.75 23.4963 30.2463 24 29.625 24C29.0037 24 28.5 23.4963 28.5 22.875C28.5 22.2537 29.0037 21.75 29.625 21.75C30.2463 21.75 30.75 22.2537 30.75 22.875Z" fill="#4C4C4C"/>
<path d="M29.25 16.5V19.5C29.25 19.9142 29.5858 20.25 30 20.25C30.4142 20.25 30.75 19.9142 30.75 19.5V15.75C30.75 15.3358 30.4142 15 30 15H18C17.5858 15 17.25 15.3358 17.25 15.75V19.5C17.25 19.9142 17.5858 20.25 18 20.25C18.4142 20.25 18.75 19.9142 18.75 19.5V16.5H29.25Z" stroke="#4C4C4C" strokeWidth="0.5"/>
<path fillRule="evenodd" clipRule="evenodd" d="M17.25 32.625V26.25C17.25 25.8358 17.5858 25.5 18 25.5H30C30.4142 25.5 30.75 25.8358 30.75 26.25V32.625C30.75 33.0392 30.4142 33.375 30 33.375H18C17.5858 33.375 17.25 33.0392 17.25 32.625ZM29.25 31.875H18.75V27H29.25V31.875Z" stroke="#4C4C4C" strokeWidth="0.5"/>
<path d="M32.625 27.75H30C29.5858 27.75 29.25 28.0858 29.25 28.5C29.25 28.9142 29.5858 29.25 30 29.25H33.375C33.7892 29.25 34.125 28.9142 34.125 28.5V21C34.125 20.0534 33.4071 19.3899 33.4071 19.3899C32.7149 18.75 31.7531 18.75 31.7531 18.75H16.2469C15.2851 18.75 14.5929 19.3899 14.5929 19.3899C13.875 20.0534 13.875 21 13.875 21V28.5C13.875 28.9142 14.2108 29.25 14.625 29.25H18C18.4142 29.25 18.75 28.9142 18.75 28.5C18.75 28.0858 18.4142 27.75 18 27.75H15.375V21C15.375 20.7096 15.611 20.4914 15.611 20.4914C15.8722 20.25 16.2469 20.25 16.2469 20.25H31.7531C32.1278 20.25 32.389 20.4914 32.389 20.4914C32.625 20.7096 32.625 21 32.625 21V27.75Z" stroke="#4C4C4C" strokeWidth="0.5"/>
<path d="M30.75 22.875C30.75 23.4963 30.2463 24 29.625 24C29.0037 24 28.5 23.4963 28.5 22.875C28.5 22.2537 29.0037 21.75 29.625 21.75C30.2463 21.75 30.75 22.2537 30.75 22.875Z" stroke="#4C4C4C" strokeWidth="0.5"/>
<rect x="0.5" y="0.5" width="47" height="47" rx="5.5" stroke="#4C4C4C"/>
</svg>
